<?xml version="1.0" encoding="UTF-8" standalone="no"?>
<!-- Created with Inkscape (http://www.inkscape.org/) -->

<svg
   width="17.652763mm"
   height="21.189398mm"
   viewBox="0 0 17.652764 21.189401"
   version="1.1"
   id="svg5"
   inkscape:version="1.3.2 (091e20e, 2023-11-25)"
   sodipodi:docname="leo_face.svg"
   xml:space="preserve"
   xmlns:inkscape="http://www.inkscape.org/namespaces/inkscape"
   xmlns:sodipodi="http://sodipodi.sourceforge.net/DTD/sodipodi-0.dtd"
   xmlns="http://www.w3.org/2000/svg"
   xmlns:svg="http://www.w3.org/2000/svg"><sodipodi:namedview
     id="namedview7"
     pagecolor="#ffffff"
     bordercolor="#666666"
     borderopacity="1.0"
     inkscape:pageshadow="2"
     inkscape:pageopacity="0.0"
     inkscape:pagecheckerboard="0"
     inkscape:document-units="mm"
     showgrid="false"
     inkscape:zoom="9.0608868"
     inkscape:cx="20.141516"
     inkscape:cy="36.309912"
     inkscape:window-width="1864"
     inkscape:window-height="1081"
     inkscape:window-x="0"
     inkscape:window-y="25"
     inkscape:window-maximized="0"
     inkscape:current-layer="silkscreen"
     inkscape:showpageshadow="0"
     inkscape:deskcolor="#505050" /><defs
     id="defs2" /><g
     inkscape:label="Layer 1"
     inkscape:groupmode="layer"
     id="layer1"
     transform="translate(83.506735,-36.242266)"><g
       inkscape:groupmode="layer"
       id="board"
       inkscape:label="board" /><g
       inkscape:groupmode="layer"
       id="silkscreen"
       inkscape:label="silkscreen"><path
         style="fill:none;stroke:#000000;stroke-width:0.335;stroke-linecap:round;stroke-dasharray:none"
         d="m -75.666864,46.50661 c 0.02568,0.0303 -0.08795,0.09331 -0.10324,0.123887 -0.0092,0.01847 0.0065,0.04236 0,0.06194 -0.0031,0.0092 -0.0163,0.01194 -0.02065,0.02065 -0.0086,0.01719 0.0131,0.0695 0,0.08259 -0.0049,0.0049 -0.01757,-0.0062 -0.02065,0 -0.0035,0.007 -0.0062,0.42112 0,0.433607 0.0266,0.05319 0.04155,0.104009 0.06194,0.165183 0.0083,0.02478 -0.0083,0.05781 0,0.08259 0.02921,0.08764 0.04182,0.166242 0.08259,0.247775 0.0083,0.01652 -0.0083,0.04543 0,0.06194 0.02342,0.04684 0.01791,0.09776 0.0413,0.144536 0.01231,0.02463 -0.0087,0.05647 0,0.08259 0.0022,0.0065 0.01578,-0.0049 0.02065,0 0.0146,0.0146 -0.0065,0.04236 0,0.06194 0.0093,0.02803 0.03272,0.04831 0.0413,0.08259 0.0033,0.01335 -0.0044,0.02824 0,0.0413 0.0031,0.0092 0.01757,0.01141 0.02065,0.02065 0.01122,0.03366 0.0048,0.09224 0.02065,0.123888 0.0044,0.0087 0.01757,0.01141 0.02065,0.02065 0.009,0.02688 -0.01264,0.07796 0,0.103239 0.0031,0.0062 0.01757,-0.0062 0.02065,0 0.01991,0.03983 0.0079,0.230312 0.02065,0.268423 0.01915,0.05746 0.0063,0.107819 0.02065,0.165184 0.0245,0.09799 0.03799,0.193272 0.06194,0.289071 0.005,0.02003 -0.0092,0.04348 0,0.06194 0.0044,0.0087 0.01757,0.01141 0.02065,0.02065 0.01265,0.03796 0.003,0.109269 0.02065,0.144536 0.01202,0.02405 0.02927,0.03789 0.0413,0.06194 0.0083,0.01652 -0.0083,0.04543 0,0.06194 0.02185,0.04371 0.02905,0.07489 0.0413,0.123888 0.01968,0.07871 0.0708,0.162241 0.103239,0.227127 0.0092,0.01847 -0.0065,0.04236 0,0.06194 0.0092,0.02749 0.0487,0.05611 0.06194,0.08259 0.0311,0.0622 0.0413,0.144531 0.06194,0.20648 0.0088,0.02649 0.03247,0.0561 0.0413,0.08259 0.0065,0.01959 -0.0092,0.04348 0,0.06194 0.02406,0.04813 0.03781,0.09628 0.06194,0.144536 0.0062,0.01231 -0.0062,0.02898 0,0.0413 0.0044,0.0087 0.01757,0.01141 0.02065,0.02065 0.0044,0.01306 -0.0044,0.02824 0,0.0413 0.0031,0.0092 0.01757,0.01141 0.02065,0.02065 0.0044,0.01306 -0.0044,0.02824 0,0.0413 0.01586,0.04757 0.04846,0.09061 0.06194,0.144535 0.02238,0.08952 0.0421,0.187448 0.08259,0.268423 0.0092,0.01847 -0.0065,0.04236 0,0.06194 0.0031,0.0092 0.0163,0.01194 0.02065,0.02065 0.0092,0.01847 -0.0065,0.04236 0,0.06194 0.0071,0.02139 0.03105,0.04146 0.0413,0.06194 0.0092,0.01847 -0.0092,0.04348 0,0.06194 0.0031,0.0062 0.01578,-0.0049 0.02065,0 0.0146,0.0146 -0.0065,0.04236 0,0.06194 0.0129,0.03872 0.04904,0.08517 0.06194,0.123888 0.01435,0.04304 0.0061,0.100931 0.02065,0.144536 0.0031,0.0092 0.01629,0.01194 0.02065,0.02065 0.06235,0.124709 -0.003,0.0087 0.02065,0.10324 0.0075,0.02986 0.03156,0.05339 0.0413,0.08259 0.0087,0.02612 -0.0087,0.05647 0,0.08259 0.0022,0.0065 0.01757,-0.0062 0.02065,0 0.01032,0.02065 -0.0052,0.0413 0,0.06194 0.01482,0.05927 0.02261,0.109134 0.0413,0.165184 0.01239,0.03717 -0.01239,0.08672 0,0.123887 0.02117,0.06352 0.01341,0.130061 0.0413,0.185832 0.02219,0.04438 -0.0159,0.117482 0,0.165183 0.0031,0.0092 0.01629,0.01194 0.02065,0.02065 0.0082,0.01631 -0.0058,0.04453 0,0.06194 0.01015,0.03047 0.03264,0.05662 0.0413,0.08259 0.0081,0.02419 0.01183,0.135723 0.02065,0.144536 0.0049,0.0049 0.01757,-0.0062 0.02065,0 0.0092,0.01847 -0.0092,0.04348 0,0.06194 0.02259,0.04518 0.02832,0.118578 0.0413,0.144536 0.0044,0.0087 0.01757,0.01141 0.02065,0.02065 0.02799,0.08396 0.02417,0.182778 0.0413,0.268423 0.01135,0.05676 0.04788,0.10893 0.06194,0.165184 0.01608,0.06433 0.02621,0.12549 0.0413,0.185831 0.01747,0.06988 0.06486,0.135545 0.08259,0.20648 0.0067,0.02671 -0.0087,0.05647 0,0.08259 0.0031,0.0092 0.01757,0.01141 0.02065,0.02065 0.0044,0.01306 -0.0033,0.02794 0,0.0413 0.0093,0.03717 0.0308,0.07176 0.0413,0.103239 0.0065,0.01959 -0.0092,0.04348 0,0.06194 0.02384,0.04768 0.03972,0.100087 0.06194,0.144536 0.01185,0.0237 0.03276,0.160229 0.0413,0.185831 0.0031,0.0092 0.01757,0.01141 0.02065,0.02065 0.0044,0.01306 -0.0062,0.02898 0,0.0413 0.0031,0.0062 0.01847,-0.0065 0.02065,0 0,0.14645 -0.0146,0.01209 0.02065,0.08259 0.07468,0.149358 0.07204,0.309267 0.144536,0.454255 0.0092,0.01847 -0.0065,0.04236 0,0.06194 0.0031,0.0092 0.0163,0.01194 0.02065,0.02065 0.0062,0.01231 -0.0044,0.02824 0,0.04129 0.02382,0.07146 0.05903,0.135782 0.08259,0.20648 0.02888,0.08663 0.04379,0.170169 0.08259,0.247775 0.01704,0.03408 0.0033,0.08921 0.02065,0.123888 0.01203,0.02405 0.02927,0.03789 0.0413,0.06194 0.01631,0.03263 0.0088,0.08843 0.02065,0.123887 0.02052,0.06157 0.04087,0.122627 0.06194,0.185832 0.01228,0.03685 0.03344,0.08463 0.0413,0.123887 0.004,0.02025 -0.0065,0.04236 0,0.06194 0.01171,0.03511 0.04704,0.135372 0.06194,0.165184 0.0044,0.0087 0.01757,0.01141 0.02065,0.02065 0.0065,0.01959 -0.0092,0.04348 0,0.06194 0.01927,0.03854 0.0274,0.08219 0.0413,0.123887 0.009,0.02692 0.01167,0.05567 0.02065,0.08259 0.01488,0.04464 0.04814,0.06868 0.06194,0.123888 0.0046,0.01841 0.0333,0.131884 0.0413,0.123887 0.02372,-0.02372 0.02065,-0.03652 0.02065,-0.06194"
         id="path1" /><path
         style="fill:none;stroke:#000000;stroke-width:0.335;stroke-linecap:round;stroke-dasharray:none"
         d="m -70.380991,40.518706 c 0.105089,0.07573 0.259676,0.115141 0.351015,0.20648 0.01088,0.01088 0.0098,0.03041 0.02065,0.0413 0.02836,0.02836 0.07253,0.05188 0.10324,0.08259 0.02126,0.02126 0.02004,0.04069 0.0413,0.06194 0.01088,0.01088 0.02898,0.01141 0.04129,0.02065 0.08383,0.06287 0.268575,0.247978 0.330368,0.330367 0.0092,0.01231 0.0098,0.03041 0.02065,0.0413 0.01088,0.01088 0.03041,0.0098 0.0413,0.02065 0.04507,0.04507 0.06526,0.114542 0.103239,0.165184 0.05038,0.06717 0.09473,0.140068 0.144536,0.20648 0.01752,0.02336 0.04575,0.03765 0.06194,0.06194 0.04993,0.07489 0.09069,0.155328 0.144535,0.227128 0.05423,0.07231 0.124672,0.146104 0.165184,0.227127 0.05931,0.118624 0.13173,0.238891 0.206479,0.351015 0.079,0.118499 0.169759,0.213342 0.247776,0.330367 0.05495,0.08243 0.14687,0.147649 0.206479,0.227128 0.01847,0.02462 0.02422,0.05698 0.0413,0.08259 0.02465,0.03697 0.05584,0.06757 0.08259,0.10324 0.04202,0.05603 0.06432,0.127455 0.103239,0.185831 0.03962,0.05943 0.103623,0.124462 0.144536,0.185832 0.02541,0.03812 0.03653,0.08577 0.06194,0.123888 0.04641,0.06962 0.09812,0.136859 0.144535,0.206479 0.03939,0.05909 0.06385,0.126743 0.10324,0.185831 0.01588,0.02383 0.04606,0.03812 0.06194,0.06194 0.07237,0.108556 0.134403,0.222252 0.206479,0.330367 0.01339,0.02008 0.0544,0.03932 0.06194,0.06194 0.0044,0.01306 -0.0044,0.02824 0,0.0413 0.0082,0.02446 0.05034,0.03873 0.06194,0.06194 0.0031,0.0062 0,0.01377 0,0.02065 0.0069,0.01377 0.01211,0.02849 0.02065,0.0413 0.02022,0.03033 0.04721,0.05313 0.06194,0.08259 0.01453,0.02907 0.06438,0.05831 0.08259,0.08259 0.0072,0.0096 0.05862,0.09992 0.06194,0.103239 0.01088,0.01088 0.03041,0.0098 0.0413,0.02065 0.0333,0.0333 0.213217,0.309283 0.227128,0.351015 0.05021,0.150638 0.113434,0.298749 0.144535,0.454255 0.0093,0.04633 -0.0093,0.09821 0,0.144535 0.01933,0.09666 0.02196,0.192398 0.0413,0.289072 0.009,0.04494 -0.0144,0.101324 0,0.144535 0.0031,0.0092 0.01757,0.01141 0.02065,0.02065 0.01652,0.04955 -0.01652,0.115629 0,0.165184 0.0049,0.0146 0.01692,0.02636 0.02065,0.0413 0.01397,0.05589 0.0054,0.320482 0.02065,0.351015 0.0044,0.0087 0.01829,0.01121 0.02065,0.02065 0.02054,0.08216 -0.02674,0.188221 0,0.268423 0.0031,0.0092 0.01757,0.01141 0.02065,0.02065 0.0123,0.0369 0,0.104437 0,0.144536 0,0.06432 0.0062,0.08694 0.02065,0.144535 0.01946,0.07785 -0.01576,0.16897 0,0.247776 0.003,0.01509 0.01691,0.02637 0.02065,0.04129 0.02863,0.114517 -0.03721,0.26005 0,0.371664 0.0031,0.0092 0.01757,0.01141 0.02065,0.02065 0.02271,0.06814 -0.02271,0.158989 0,0.227127 0.0031,0.0092 0.0163,0.01194 0.02065,0.02065 0.0083,0.01652 -0.0083,0.04543 0,0.06194 0.02112,0.04225 0.04057,0.08113 0.06194,0.123887 0.0062,0.01231 -0.0062,0.02898 0,0.0413 0.01833,0.03665 0.04362,0.06659 0.06194,0.10324 0.01158,0.02317 0.0087,0.05867 0.02065,0.08259 0.01202,0.02405 0.02927,0.03789 0.0413,0.06194 0.0062,0.01231 0,0.05506 0,0.0413 0,-0.03441 0,-0.06883 0,-0.10324"
         id="path2" /><path
         style="fill:none;stroke:#000000;stroke-width:0.335;stroke-linecap:round;stroke-dasharray:none"
         d="m -72.321898,44.379872 c 0.175049,0.322187 0.115279,0.717497 0.227128,1.053044 0.0083,0.02488 -0.0064,0.05701 0,0.08259 0.01242,0.04968 0.0288,0.06576 0.0413,0.10324 0.01122,0.03366 0.0048,0.09224 0.02065,0.123888 0.0044,0.0087 0.01829,0.01121 0.02065,0.02065 0.005,0.02003 -0.004,0.0417 0,0.06194 0.0066,0.03304 0.0306,0.07115 0.0413,0.10324 0.0062,0.01859 -0.0062,0.04336 0,0.06194 0.0031,0.0092 0.0163,0.01194 0.02065,0.02065 0.0062,0.01231 -0.0033,0.02794 0,0.0413 0.05215,0.208619 -0.0075,-0.01491 0.0413,0.08259 0.0092,0.01847 -0.0065,0.04236 0,0.06194 0.0031,0.0092 0.0163,0.01194 0.02065,0.02065 0.01,0.01999 -0.0011,0.0392 0.02065,0.08259 0.0031,0.0062 0,0.01377 0,0.02065 0,0.01377 -0.0062,0.02898 0,0.04129 0.0031,0.0062 0.01757,-0.0062 0.02065,0 0.0092,0.01847 -0.0092,0.04348 0,0.06194 0.04067,0.08134 0.07906,0.192365 0.10324,0.289071 0.0109,0.04358 0.0066,0.102263 0.02065,0.144536 0.0031,0.0092 0.01377,0.01377 0.02065,0.02065 0.0069,0.02065 0.01638,0.0406 0.02065,0.06194 0.03237,0.161859 0.07148,0.317694 0.123888,0.474903 0.01908,0.05724 0.0025,0.131455 0.02065,0.185831 0.0031,0.0092 0.01757,0.01141 0.02065,0.02065 0.0091,0.02744 -0.01311,0.07702 0,0.10324 0.0044,0.0087 0.01829,0.0112 0.02065,0.02065 0.0081,0.03239 -0.0081,0.07085 0,0.10324 0.01968,0.07871 0.02801,0.159267 0.06194,0.227127 0.02678,0.05357 -0.0056,0.153964 0.02065,0.20648 0.0044,0.0087 0.01757,0.01141 0.02065,0.02065 0.02184,0.06552 -0.0013,0.140649 0.02065,0.206479 0.0031,0.0092 0.01757,0.01141 0.02065,0.02065 0.0087,0.02612 -0.01231,0.05797 0,0.08259 0.0031,0.0062 0.01757,-0.0062 0.02065,0 0.01257,0.02515 -0.0057,0.0746 0,0.10324 0.0077,0.03835 0.02832,0.12625 0.0413,0.165183 0.0031,0.0092 0.01757,0.01141 0.02065,0.02065 0.0087,0.02612 -0.0087,0.05647 0,0.08259 0.0031,0.0092 0.01703,0.01161 0.02065,0.02065 0.08276,0.206892 -0.0209,-0.02165 0.02065,0.144536 0.0024,0.0094 0.01757,0.01141 0.02065,0.02065 0.01309,0.03928 0.0029,0.10902 0.02065,0.144535 0.04081,0.08163 0.07216,0.195834 0.10324,0.289072 0.0062,0.01858 -0.0062,0.04336 0,0.06194 0.01417,0.04251 0.04978,0.09588 0.06194,0.144536 0.0033,0.01335 -0.0044,0.02824 0,0.0413 0.0031,0.0092 0.01757,0.01141 0.02065,0.02065 0.0044,0.01306 -0.0033,0.02794 0,0.0413 0.01897,0.07587 0.06331,0.149981 0.08259,0.227127 0.0033,0.01335 -0.0044,0.02824 0,0.0413 0.0031,0.0092 0.0163,0.01194 0.02065,0.02065 0.09971,0.199416 -0.0266,-0.03851 0.02065,0.10324 0.0031,0.0092 0.01757,0.01141 0.02065,0.02065 0.0044,0.01306 -0.0044,0.02824 0,0.0413 0.0031,0.0092 0.01703,0.01161 0.02065,0.02065 0.02163,0.05407 0.04007,0.110504 0.06194,0.165183 0.08314,0.207848 -0.01612,-0.04384 0.02065,0.10324 0.01093,0.04373 0.05101,0.08016 0.06194,0.123888 0.02834,0.113368 0.07075,0.224085 0.123887,0.330367 0.06934,0.138675 0.112203,0.306998 0.185832,0.454255 0.06374,0.127476 0.102959,0.267862 0.165183,0.392311 0.0031,0.0062 0,0.01377 0,0.02065 0.0069,0.02065 0.0086,0.04383 0.02065,0.06194 0.0038,0.0057 0.01683,-0.0057 0.02065,0 0.0097,0.01452 0.05519,0.103619 0.06194,0.123888 0.0044,0.01306 -0.0051,0.02852 0,0.0413 0.09793,0.244818 -0.01221,-0.08635 0.08259,0.10324 0.0062,0.01231 0,0.02753 0,0.0413 0.0069,0.01377 0.01211,0.02849 0.02065,0.04129 0.01518,0.02278 0.04975,0.03755 0.06194,0.06194 0.07115,0.142308 0.161409,0.28341 0.247775,0.412959 0.02511,0.03766 0.04096,0.102563 0.06194,0.144536 0.0222,0.04439 0.05706,0.08133 0.08259,0.123887 0.02353,0.03921 0.03659,0.08586 0.06194,0.123888 0.0108,0.0162 0.03259,0.02388 0.04129,0.0413 0.0097,0.01947 0.0086,0.04383 0.02065,0.06194 0.0038,0.0057 0.01578,-0.0049 0.02065,0 0.01755,0.01755 0.03345,0.0384 0.0413,0.06194 0.0044,0.01306 -0.0044,0.02824 0,0.0413 0.0062,0.01847 0.03259,0.02388 0.0413,0.0413 0.01468,0.02936 0.02222,0.07146 0.0413,0.10324 0.03557,0.05928 0.08106,0.119297 0.10324,0.185832 0.0044,0.01306 -0.0033,0.02794 0,0.04129 0.0095,0.03808 0.0263,0.0526 0.0413,0.08259 0.0062,0.01231 -0.0062,0.02898 0,0.0413 0.01491,0.02981 0.02639,0.05278 0.0413,0.08259 0.0062,0.01231 -0.0062,0.02898 0,0.0413 0.04725,0.0945 -0.0086,-0.08762 0.0413,0.06194 0.01064,0.03193 0.01977,0.143655 0.0413,0.165183 0.0049,0.0049 0.01578,-0.0049 0.02065,0 0.0095,0.0095 -0.0062,0.04948 0,0.06194 0.07342,0.146839 0.103239,0.314428 0.103239,0.49555"
         id="path3" /><path
         style="fill:none;stroke:#000000;stroke-width:0.335;stroke-linecap:round;stroke-dasharray:none"
         d="m -78.495632,40.229635 c 0,-0.02753 0.0054,-0.0556 0,-0.08259 -0.0019,-0.0095 -0.0163,-0.01194 -0.02065,-0.02065 -0.01094,-0.02188 0.0078,-0.0592 0,-0.08259 -0.0049,-0.0146 -0.01578,-0.0267 -0.02065,-0.0413 -0.02261,-0.06784 0,-0.563918 0,-0.660735 0,-0.0632 0.02335,-0.283666 0,-0.330366 -0.02624,-0.05248 -0.02065,-0.09929 -0.02065,-0.165184 0,-0.08609 0.01487,-0.197393 -0.02065,-0.268423 -0.01377,-0.02753 0.01377,-0.07571 0,-0.10324 -0.0031,-0.0062 -0.01757,0.0062 -0.02065,0 -0.01137,-0.02274 0.0081,-0.05838 0,-0.08259 -0.0057,-0.0171 -0.03616,-0.160049 -0.0413,-0.165183 -0.0049,-0.0049 -0.01578,0.0049 -0.02065,0 -0.01032,-0.01032 0.01032,-0.05162 0,-0.06194 -0.0049,-0.0049 -0.01578,0.0049 -0.02065,0 -0.0097,-0.0097 0.0097,-0.03156 0,-0.0413 -0.0049,-0.0049 -0.01578,0.0049 -0.02065,0 -0.04272,-0.04272 0.06528,0.0017 -0.02065,-0.0413 -0.0062,-0.0031 -0.01578,0.0049 -0.02065,0 -0.01032,-0.01032 -0.01032,-0.03097 -0.02065,-0.0413 -0.0049,-0.0049 -0.01492,0.0038 -0.02065,0 -0.02753,-0.01836 -0.05186,-0.06722 -0.08259,-0.08259 -0.0062,-0.0031 -0.01578,0.0049 -0.02065,0 -0.0049,-0.0049 0.0031,-0.01449 0,-0.02065 -0.04297,-0.08593 0.0014,0.02208 -0.0413,-0.02065 -0.0049,-0.0049 0.0049,-0.01578 0,-0.02065 -0.0094,-0.0094 -0.07287,0.03643 -0.08259,0.0413 -0.06938,0.03469 -0.157546,0.0478 -0.227127,0.08259 -0.01515,0.0076 -0.155707,0.01117 -0.165184,0.02065 -0.0049,0.0049 0.0049,0.01578 0,0.02065 -0.0097,0.0097 -0.02824,-0.0044 -0.04129,0 -0.149562,0.04985 0.03255,-0.006 -0.06194,0.0413 -0.02193,0.01096 -0.06419,0.0022 -0.08259,0.02065 -0.0049,0.0049 0.0062,0.01757 0,0.02065 -0.01231,0.0062 -0.02898,-0.0062 -0.0413,0 -0.0062,0.0031 0.0049,0.01578 0,0.02065 -0.02985,0.02985 -0.08988,0.06559 -0.123888,0.08259 -0.01377,0.0069 -0.0069,0.03441 -0.02065,0.0413 -0.01231,0.0062 -0.02898,-0.0062 -0.0413,0 -0.0062,0.0031 0.0049,0.01578 0,0.02065 -0.03593,0.03593 -0.102782,0.08236 -0.144535,0.10324 -0.0413,0.02065 -0.06194,0.08259 -0.10324,0.103239 -0.0255,0.01275 -0.0571,0.02855 -0.08259,0.0413 -0.06411,0.03205 -0.133626,0.133627 -0.185831,0.185832 -0.03575,0.03575 -0.07015,0.03296 -0.10324,0.08259 -0.0055,0.0083 -0.05984,0.101137 -0.06194,0.103239 -0.01032,0.01032 -0.03097,0.01032 -0.0413,0.02065 -0.0097,0.0097 0.0062,0.02898 0,0.0413 -0.03208,0.06416 -0.05971,0.117189 -0.08259,0.185832 -0.0078,0.02339 0.01094,0.06071 0,0.08259 -0.01203,0.02405 -0.02927,0.03789 -0.0413,0.06194 -0.0062,0.01231 0.0097,0.03156 0,0.0413 -0.0049,0.0049 -0.01578,-0.0049 -0.02065,0 -0.02065,0.02065 0,0.08259 -0.02065,0.10324 -0.0049,0.0049 -0.01578,-0.0049 -0.02065,0 -0.01097,0.01097 -0.01251,0.140774 -0.02065,0.165183 -0.01465,0.04396 -0.02664,0.07993 -0.0413,0.123888 -0.01032,0.03097 0.01032,0.07227 0,0.10324 -0.0031,0.0092 -0.0163,0.01194 -0.02065,0.02065 -0.01164,0.02328 0,0.07803 0,0.103239 0,0.0085 0.0055,0.05648 0,0.06194 -0.0049,0.0049 -0.01578,-0.0049 -0.02065,0 -0.01902,0.01902 0,0.159811 0,0.185832 0,0.04842 0.0049,-0.0097 -0.02065,0.0413 -0.02065,0.0413 0,0.230144 0,0.289071 0,0.0085 -0.0055,0.05648 0,0.06194 0.0049,0.0049 0.01578,-0.0049 0.02065,0 0.0097,0.0097 -0.0062,0.02898 0,0.0413 0.0044,0.0087 0.0163,0.01194 0.02065,0.02065 0.0062,0.01247 -0.0095,0.0524 0,0.06194 0.0049,0.0049 0.01578,-0.0049 0.02065,0 0.0049,0.0049 -0.0031,0.01449 0,0.02065 0.01835,0.03671 0.08695,0.119914 0.123887,0.144536 0.04346,0.02897 0.08307,0.04154 0.123888,0.06194 0.0315,0.01575 0.0518,0.04655 0.08259,0.06194 0.01231,0.0062 0.02898,-0.0062 0.0413,0 0.03951,0.01976 0.08437,0.04219 0.123888,0.06194 0.02963,0.01482 0.128772,0.02309 0.165184,0.0413 0.0087,0.0044 0.01141,0.01757 0.02065,0.02065 0.04814,0.01604 0.153024,0.0073 0.206479,0.02065 0.04554,0.01139 0.249762,0.06095 0.289071,0.0413 0.112791,-0.0564 0.237351,-0.108351 0.351015,-0.165183 0.05063,-0.02532 0.228566,-0.08547 0.247776,-0.123888 0.03097,-0.06194 -0.06883,0.03441 0.0413,-0.02065 0.01377,-0.0069 0.0069,-0.03441 0.02065,-0.0413 0.01251,-0.0063 0.05329,-0.012 0.06194,-0.02065 0.01227,-0.01227 0.01214,-0.02428 0.02065,-0.0413 0.04297,-0.08593 -0.0014,0.02207 0.0413,-0.02065 0.01538,-0.01538 0.02963,-0.07092 0.0413,-0.08259 0.0049,-0.0049 0.01578,0.0049 0.02065,0 0.01538,-0.01538 0.02963,-0.07093 0.0413,-0.08259 0.0049,-0.0049 0.01578,0.0049 0.02065,0 0.01841,-0.01841 0.0097,-0.06066 0.02065,-0.08259 0.03497,-0.06994 0.06812,-0.136246 0.10324,-0.20648 0.0062,-0.01231 -0.0097,-0.03156 0,-0.0413 0.02433,-0.02433 0.05506,-0.0413 0.08259,-0.06194 z"
         id="path4" /><path
         style="fill:none;stroke:#000000;stroke-width:0.335;stroke-linecap:round;stroke-dasharray:none"
         d="m -79.362846,39.610197 c 0.0069,0.02753 -0.0069,0.08947 0.02065,0.08259 0.02753,-0.0069 -0.03639,-0.106203 -0.02065,-0.08259 0.100575,0.150862 0.0048,0.144535 0.08259,0.144535"
         id="path5" /><path
         style="fill:none;stroke:#000000;stroke-width:0.233;stroke-linecap:round;stroke-dasharray:none"
         d="m -75.832048,39.672141 c -0.01873,-0.103384 -0.04629,-0.237796 0,-0.330368 0.0081,-0.01618 0.02489,-0.107478 0.0413,-0.123887 0.01032,-0.01032 0.03097,-0.01032 0.0413,-0.02065 0.01197,-0.01197 0.02933,-0.07062 0.0413,-0.08259 0.01088,-0.01088 0.02849,-0.01211 0.0413,-0.02065 0.02278,-0.01518 0.03755,-0.04975 0.06194,-0.06194 0.02902,-0.01451 0.106909,-0.02065 0.144535,-0.02065 0.01746,0 0.07185,-0.01075 0.08259,0 0.0049,0.0049 -0.0049,0.01578 0,0.02065 0.02491,0.02491 0.08251,-0.02088 0.10324,0.0413 0.0044,0.01306 -0.0044,0.02824 0,0.0413 0.01094,0.03282 0.04656,0.07248 0.06194,0.10324 0.0062,0.01231 -0.0062,0.02898 0,0.0413 0.01491,0.02981 0.02639,0.05278 0.0413,0.08259 0.01083,0.02166 0.005,0.08754 0.02065,0.10324 0.0049,0.0049 0.01578,-0.0049 0.02065,0 0.01032,0.01032 -0.01032,0.05162 0,0.06194 0.0049,0.0049 0.01578,-0.0049 0.02065,0 0.01165,0.01165 -0.0055,0.06609 0,0.08259 0.0049,0.0146 0.01578,0.0267 0.02065,0.0413 0.0073,0.02178 0.01404,0.192443 0,0.206479 -0.0049,0.0049 -0.01578,-0.0049 -0.02065,0 -0.0097,0.0097 0.0062,0.02898 0,0.0413 -0.01045,0.02091 -0.07682,0.159416 -0.08259,0.165183 -0.01268,0.01269 -0.04812,0.01364 -0.06194,0.0413 -0.03629,0.07259 -0.05325,0.09745 -0.123887,0.144536 -0.0244,0.01627 -0.0289,0.04955 -0.0413,0.06194 -0.0296,0.0296 -0.119815,0.02065 -0.165184,0.02065 -0.104644,0 -0.183091,0.0014 -0.268423,-0.0413 -0.01231,-0.0062 -0.02898,0.0062 -0.0413,0 -0.01741,-0.0087 -0.02388,-0.03259 -0.0413,-0.0413 -0.02917,-0.01459 -0.04196,-6.61e-4 -0.06194,-0.02065 -0.01841,-0.01841 -0.0097,-0.06066 -0.02065,-0.08259 -0.01203,-0.02405 -0.02927,-0.03789 -0.0413,-0.06194 -0.01903,-0.03806 0,-0.143294 0,-0.185832 0,-0.04842 0.0049,0.0097 -0.02065,-0.0413 -0.01522,-0.03045 0.02315,-0.121387 0,-0.144536 -0.006,-0.006 -0.04293,-0.01738 -0.02065,-0.06194 0.01533,-0.03066 0.09074,-0.193983 0.10324,-0.20648 0.0049,-0.0049 0.01578,0.0049 0.02065,0 0.0049,-0.0049 -0.0031,-0.01449 0,-0.02065 0.01652,-0.03304 0.06607,-0.04955 0.08259,-0.08259 0.0031,-0.0062 -0.0049,-0.01578 0,-0.02065 0.0049,-0.0049 0.01578,0.0049 0.02065,0 0.0049,-0.0049 -0.0049,-0.01578 0,-0.02065 0.0017,-0.0017 0.1222,-0.0809 0.123887,-0.08259 0.0049,-0.0049 -0.0049,-0.01578 0,-0.02065 0.0049,-0.0049 0.01578,0.0049 0.02065,0 0.0049,-0.0049 -0.0049,-0.01578 0,-0.02065 0.02131,-0.02131 0.06001,-0.03 0.08259,-0.0413 0.02405,-0.01203 0.03789,-0.02927 0.06194,-0.0413 0.04816,-0.02408 0.172088,0 0.227128,0 0.0085,0 0.05648,-0.0055 0.06194,0 0.0049,0.0049 -0.0049,0.01578 0,0.02065 7.15e-4,7.14e-4 0.05459,0.01329 0.06194,0.02065 0.0069,0.0069 0.01377,0.05506 0.02065,0.06194 0.0049,0.0049 0.01578,-0.0049 0.02065,0 0.0097,0.0097 -0.0097,0.03156 0,0.0413 0.0049,0.0049 0.01578,-0.0049 0.02065,0 0.03449,0.03449 0.0413,0.191799 0.0413,0.247776 0,0.0126 0.008,0.07455 0,0.08259 -0.0049,0.0049 -0.01578,-0.0049 -0.02065,0 -0.0097,0.0097 0.0044,0.02824 0,0.0413 -0.01015,0.03047 -0.03264,0.05662 -0.0413,0.08259 -0.0047,0.01415 -0.01194,0.115186 -0.02065,0.123888 -0.0049,0.0049 -0.01847,-0.0065 -0.02065,0 -0.0065,0.01959 0.005,0.04191 0,0.06194 -0.0047,0.01873 -0.03241,0.04417 -0.0413,0.06194 -0.0062,0.01231 0.0097,0.03156 0,0.04129 -0.0049,0.0049 -0.01757,-0.0062 -0.02065,0 -0.01167,0.02334 -0.02065,0.09069 -0.02065,0.123888 0,0.05506 0.0069,-0.0069 -0.02065,0.02065 -0.0095,0.0095 0.0062,0.04948 0,0.06194 -0.0093,0.01854 -0.03312,0.09506 -0.0413,0.10324 -0.01032,0.01032 -0.03097,0.01032 -0.0413,0.02065 -0.0049,0.0049 0.0049,0.01578 0,0.02065 -0.0097,0.0097 -0.03156,-0.0097 -0.0413,0 -0.0092,0.0092 0.01606,0.039 -0.02065,0.02065 -0.04024,-0.02012 -0.03551,-0.09745 -0.06194,-0.123888 -0.0049,-0.0049 -0.01578,0.0049 -0.02065,0 -0.0097,-0.0097 0.0062,-0.02898 0,-0.0413 -0.04297,-0.08593 0.0014,0.02207 -0.0413,-0.02065 -0.0049,-0.0049 0.0049,-0.01578 0,-0.02065 -0.0049,-0.0049 -0.01578,0.0049 -0.02065,0 -0.0049,-0.0049 0.0049,-0.01578 0,-0.02065 -0.0049,-0.0049 -0.01578,0.0049 -0.02065,0 -0.0049,-0.0049 0.0031,-0.01449 0,-0.02065 -0.01697,-0.03393 -0.05751,-0.02875 -0.08259,-0.0413 -0.0413,-0.02065 -0.06194,-0.08259 -0.10324,-0.10324 -0.0062,-0.0031 -0.01578,0.0049 -0.02065,0 -0.0049,-0.0049 0.0049,-0.01578 0,-0.02065 -0.0049,-0.0049 -0.01449,0.0031 -0.02065,0 -0.08593,-0.04297 0.02207,0.0014 -0.02065,-0.0413 -0.02515,-0.02515 -0.04613,-0.0097 -0.06194,-0.0413 -0.01424,-0.02848 0.02501,-0.01847 -0.02065,-0.04129 -0.02595,-0.01298 -0.06589,-0.02854 -0.08259,-0.06194 -0.0061,-0.01219 -0.03445,-0.07574 -0.0413,-0.08259 -0.0049,-0.0049 -0.01449,0.0031 -0.02065,0 -0.08593,-0.04297 0.02207,0.0014 -0.02065,-0.0413 -0.0049,-0.0049 -0.01578,0.0049 -0.02065,0 -0.01197,-0.01197 -0.02933,-0.07062 -0.0413,-0.08259 -0.0011,-0.0011 -0.06083,-0.04018 -0.06194,-0.0413 -0.0097,-0.0097 0.05639,-0.127862 0.06194,-0.144535 0.0085,-0.02539 0.07237,-0.154965 0.08259,-0.165184 0.0049,-0.0049 0.01377,0 0.02065,0 0.0069,-0.0069 0.01525,-0.01255 0.02065,-0.02065 0.0085,-0.01281 0.0098,-0.03041 0.02065,-0.0413 0.0049,-0.0049 0.01578,0.0049 0.02065,0 0.01268,-0.01268 0.01364,-0.04812 0.0413,-0.06194 0.02056,-0.01028 0.112242,-0.0503 0.123888,-0.06194 0.0049,-0.0049 -0.0049,-0.01578 0,-0.02065 0.0097,-0.0097 0.03156,0.0097 0.0413,0 0.0049,-0.0049 -0.0049,-0.01578 0,-0.02065 0.01547,-0.01547 0.05705,-0.02065 0.08259,-0.02065 0.0398,0 0.08913,-0.04456 0.123888,-0.06194 0.01231,-0.0062 0.02898,0.0062 0.0413,0 0.0525,-0.02625 0.111598,-0.0558 0.165183,-0.08259 0.01741,-0.0087 0.02388,-0.03259 0.0413,-0.0413 0.0062,-0.0031 0.01578,0.0049 0.02065,0 0.0049,-0.0049 -0.0049,-0.01578 0,-0.02065 0.01375,-0.01374 0.02755,0.01375 0.0413,0 0.0049,-0.0049 -0.0049,-0.01578 0,-0.02065 0.0051,-0.0051 0.118794,-0.0051 0.123888,0 0.01977,0.01977 0.04754,0.115719 0.06194,0.144536 0.0062,0.01231 -0.0097,0.03156 0,0.0413 0.0049,0.0049 0.01578,-0.0049 0.02065,0 0.0097,0.0097 -0.0062,0.02898 0,0.0413 0.01716,0.03431 0.02768,0.0624 0.0413,0.10324 0.0044,0.01306 -0.0097,0.03156 0,0.0413 0.0049,0.0049 0.01757,-0.0062 0.02065,0 0.01652,0.03304 -0.01652,0.09085 0,0.123888 0.0317,0.06341 0.0317,0.163721 0,0.227127 -0.01377,0.02753 0.01377,0.07571 0,0.10324 -0.01715,0.03431 -0.02768,0.0624 -0.0413,0.103239 -0.0044,0.01306 0.0097,0.03156 0,0.0413 -0.0049,0.0049 -0.01578,-0.0049 -0.02065,0 -0.0097,0.0097 0.0062,0.02898 0,0.0413 -0.01203,0.02405 -0.02927,0.03789 -0.0413,0.06194 -0.0062,0.01231 0.0097,0.03156 0,0.0413 -0.0049,0.0049 -0.01578,-0.0049 -0.02065,0 -0.0097,0.0097 0.0097,0.03156 0,0.0413 -0.0049,0.0049 -0.01757,-0.0062 -0.02065,0 -0.0062,0.01231 0.0044,0.02824 0,0.0413 -0.0062,0.01847 -0.03259,0.02388 -0.0413,0.0413 -0.0062,0.01231 0.0097,0.03156 0,0.0413 -0.04875,0.04875 0.01086,-0.115168 -0.0413,0.0413 -0.0156,0.0468 -0.05395,0.219137 -0.08259,0.247776 -0.0062,0.0062 -0.447091,0 -0.495551,0 -0.06784,0 -0.312573,0.01779 -0.351014,-0.02065 -0.0087,-0.0087 -0.01439,-0.04943 -0.02065,-0.06194 -0.01203,-0.02405 -0.02927,-0.03789 -0.0413,-0.06194 -0.01172,-0.02345 -0.03479,-0.281439 -0.02065,-0.309719 0.0044,-0.0087 0.01757,-0.01141 0.02065,-0.02065 0.02901,-0.08703 -0.02053,-0.186065 0.02065,-0.268423 0.0086,-0.01719 -0.0131,-0.06949 0,-0.08259 0.0049,-0.0049 0.01578,0.0049 0.02065,0 0.0069,-0.0069 0.01377,-0.05506 0.02065,-0.06194 0.0049,-0.0049 0.01578,0.0049 0.02065,0 0.01929,-0.01929 0.02201,-0.08395 0.0413,-0.10324 0.0049,-0.0049 0.01578,0.0049 0.02065,0 0.0049,-0.0049 -0.0049,-0.01578 0,-0.02065 0.0049,-0.0049 0.01578,0.0049 0.02065,0 0.0049,-0.0049 -0.0049,-0.01578 0,-0.02065 0.01561,-0.01561 0.0413,-0.009 0.0413,-0.0413"
         id="path6" /><path
         style="fill:none;stroke:#000000;stroke-width:0.335;stroke-linecap:round;stroke-dasharray:none"
         d="m -72.961984,40.126395 c 0.151116,-0.185931 -0.08583,-0.06518 -0.103239,-0.08259 -0.0049,-0.0049 0.0031,-0.01449 0,-0.02065 -0.01,-0.01995 -0.06264,-0.07261 -0.08259,-0.08259 -0.0062,-0.0031 -0.01578,0.0049 -0.02065,0 -0.0049,-0.0049 0.0049,-0.01578 0,-0.02065 -0.01032,-0.01032 -0.03097,-0.01032 -0.0413,-0.02065 -0.0049,-0.0049 0,-0.01377 0,-0.02065 -0.0069,-0.0069 -0.01377,-0.01377 -0.02065,-0.02065 -0.01466,-0.01466 -0.05828,-0.03763 -0.06194,-0.0413 -0.0049,-0.0049 0.0049,-0.01578 0,-0.02065 -0.0011,-0.0011 -0.06083,-0.04018 -0.06194,-0.0413 -0.0049,-0.0049 0.0049,-0.01578 0,-0.02065 -0.0097,-0.0097 -0.03156,0.0097 -0.0413,0 -0.0049,-0.0049 0.0049,-0.01578 0,-0.02065 -0.0097,-0.0097 -0.03156,0.0097 -0.0413,0 -0.0049,-0.0049 0.0049,-0.01578 0,-0.02065 -0.0097,-0.0097 -0.03156,0.0097 -0.0413,0 -0.0049,-0.0049 0.0049,-0.01578 0,-0.02065 -0.0097,-0.0097 -0.03156,0.0097 -0.0413,0 -0.0049,-0.0049 0.0049,-0.01578 0,-0.02065 -0.0049,-0.0049 -0.01578,0.0049 -0.02065,0 -0.0011,-0.0011 -0.04018,-0.06083 -0.0413,-0.06194 -0.01197,-0.01197 -0.07062,-0.02933 -0.08259,-0.0413 -0.0049,-0.0049 0.0049,-0.01578 0,-0.02065 -0.0049,-0.0049 -0.01578,0.0049 -0.02065,0 -0.0011,-0.0011 -0.04018,-0.06083 -0.0413,-0.06194 -0.0049,-0.0049 -0.01578,0.0049 -0.02065,0 -0.0097,-0.0097 0.0097,-0.03156 0,-0.0413 -0.0049,-0.0049 -0.01449,0.0031 -0.02065,0 -0.08593,-0.04297 0.02207,0.0014 -0.02065,-0.04129 -0.0049,-0.0049 -0.01578,0.0049 -0.02065,0 -0.01197,-0.01197 -0.02933,-0.07062 -0.0413,-0.08259 -0.0049,-0.0049 -0.01578,0.0049 -0.02065,0 -0.0097,-0.0097 0.0097,-0.03156 0,-0.0413 -0.01032,-0.01032 -0.03097,-0.01032 -0.0413,-0.02065 -0.0069,-0.0069 -0.01377,-0.05506 -0.02065,-0.06194 -0.0011,-0.0011 -0.06082,-0.04018 -0.06194,-0.0413 -0.0049,-0.0049 0.0049,-0.01578 0,-0.02065 -0.0049,-0.0049 -0.01578,0.0049 -0.02065,0 -0.01197,-0.01197 -0.02933,-0.07062 -0.0413,-0.08259 -0.01032,-0.01032 -0.03097,-0.01032 -0.0413,-0.02065 -0.0069,-0.0069 -0.01377,-0.05506 -0.02065,-0.06194 -0.0049,-0.0049 -0.01578,0.0049 -0.02065,0 -0.0058,-0.0058 -0.07214,-0.144275 -0.08259,-0.165184 -0.0062,-0.01231 0.0097,-0.03156 0,-0.0413 -0.0049,-0.0049 -0.01578,0.0049 -0.02065,0 -0.0097,-0.0097 0.0062,-0.02898 0,-0.0413 -0.01491,-0.02981 -0.02639,-0.05278 -0.0413,-0.08259 -0.02408,-0.04816 0,-0.172087 0,-0.227127 0,-0.01377 -0.0097,-0.03156 0,-0.0413 0.0049,-0.0049 0.01578,0.0049 0.02065,0 0.01377,-0.01377 -0.01377,-0.06883 0,-0.08259 0.0049,-0.0049 0.01757,0.0062 0.02065,0 0.0062,-0.01231 -0.0044,-0.02824 0,-0.0413 0.0031,-0.0092 0.0163,-0.01194 0.02065,-0.02065 0.0062,-0.01231 -0.0062,-0.02898 0,-0.04129 0.02066,-0.04132 0.04302,-0.08604 0.06194,-0.123888 0.06418,-0.128355 0.248744,-0.155344 0.351015,-0.20648 0.01847,-0.0092 0.04236,0.0065 0.06194,0 0.0092,-0.0031 0.01194,-0.01629 0.02065,-0.02065 0.01803,-0.009 0.510791,-0.02606 0.516198,-0.02065 0.0049,0.0049 -0.0049,0.01578 0,0.02065 0.01982,0.01982 0.09782,-0.01303 0.123888,0 0.02405,0.01203 0.03789,0.02927 0.06194,0.0413 0.01231,0.0062 0.03156,-0.0097 0.0413,0 0.0049,0.0049 -0.0049,0.01578 0,0.02065 0.02409,0.02409 0.0998,-0.0034 0.123887,0.02065 0.0049,0.0049 -0.0062,0.01757 0,0.02065 0.0097,0.0048 0.164208,0.04032 0.165184,0.0413 0.0049,0.0049 -0.0049,0.01578 0,0.02065 0.0097,0.0097 0.03156,-0.0097 0.0413,0 0.0011,0.0011 0.04018,0.06082 0.0413,0.06194 0.0049,0.0049 0.01449,-0.0031 0.02065,0 0.02765,0.01383 0.02861,0.04926 0.0413,0.06194 0.0049,0.0049 0.01578,-0.0049 0.02065,0 0.0097,0.0097 -0.0062,0.02898 0,0.0413 0.0087,0.01741 0.03259,0.02388 0.0413,0.0413 0.0031,0.0062 -0.0049,0.01578 0,0.02065 0.0049,0.0049 0.01578,-0.0049 0.02065,0 0.0097,0.0097 -0.0097,0.03156 0,0.0413 0.0049,0.0049 0.01578,-0.0049 0.02065,0 0.0097,0.0097 -0.0062,0.02898 0,0.0413 0.0044,0.0087 0.0163,0.01194 0.02065,0.02065 0.01311,0.02622 -0.0091,0.0758 0,0.103239 0.0031,0.0092 0.0163,0.01194 0.02065,0.02065 0.01916,0.03833 0,0.235176 0,0.289071 0,0.03854 0.0044,0.02946 0.02065,0.06194 0.01581,0.03161 -0.0079,0.366823 -0.02065,0.392311 -0.01203,0.02405 -0.02927,0.03789 -0.0413,0.06194 -0.0062,0.01231 0.0097,0.03156 0,0.0413 -0.0049,0.0049 -0.01578,-0.0049 -0.02065,0 -0.0097,0.0097 0.0097,0.03156 0,0.0413 -0.0049,0.0049 -0.01578,-0.0049 -0.02065,0 -0.01069,0.01069 -0.01,0.0719 -0.02065,0.08259 -0.0049,0.0049 -0.01578,-0.0049 -0.02065,0 -0.0097,0.0097 0.0097,0.03156 0,0.04129 -0.0049,0.0049 -0.01578,-0.0049 -0.02065,0 -0.0069,0.0069 -0.01377,0.05506 -0.02065,0.06194 -0.01032,0.01032 -0.03097,0.01032 -0.0413,0.02065 -0.0097,0.0097 0.0097,0.03156 0,0.0413 -0.0049,0.0049 -0.01578,-0.0049 -0.02065,0 -0.01043,0.01043 -0.0525,0.10501 -0.06194,0.123888 -0.04297,0.08593 0.0014,-0.02208 -0.0413,0.02065 -0.0049,0.0049 0.0031,0.01449 0,0.02065 -0.0087,0.01741 -0.03259,0.02388 -0.0413,0.0413 -0.0062,0.01231 0.0097,0.03156 0,0.0413 -0.0049,0.0049 -0.01578,-0.0049 -0.02065,0 -0.0049,0.0049 0.0049,0.01578 0,0.02065 -0.0049,0.0049 -0.01578,-0.0049 -0.02065,0 -0.0049,0.0049 0.0031,0.01449 0,0.02065 -0.01423,0.02846 -0.04843,0.02778 -0.06194,0.0413 -0.0069,0.0069 -0.01377,0.05506 -0.02065,0.06194 -0.0083,0.0083 -0.02624,0.01118 -0.0413,0.04129 -0.0062,0.01231 0.0097,0.03156 0,0.0413 -0.0049,0.0049 -0.01898,-0.0067 -0.02065,0 -0.0067,0.02671 0,0.05506 0,0.08259 z"
         id="path7" /><path
         style="fill:none;stroke:#000000;stroke-width:0.335;stroke-linecap:round;stroke-dasharray:none"
         d="m -81.179865,42.707388 c 0.07944,0.05083 0.11062,0.131267 0.165184,0.185832 0.02177,0.02176 0.06083,0.01953 0.08259,0.0413 0.0049,0.0049 -0.0049,0.01578 0,0.02065 0.0069,0.0069 0.05506,0.01377 0.06194,0.02065 0.0049,0.0049 -0.0049,0.01578 0,0.02065 0.0097,0.0097 0.02898,-0.0062 0.0413,0 0.0087,0.0044 0.01194,0.0163 0.02065,0.02065 0.01247,0.0062 0.0524,-0.0095 0.06194,0 0.0049,0.0049 -0.0049,0.01578 0,0.02065 0.0061,0.0061 0.0949,0.0268 0.123888,0.0413 0.01231,0.0062 0.03156,-0.0097 0.0413,0 0.0049,0.0049 -0.0049,0.01578 0,0.02065 0.02016,0.02016 0.112337,0.04584 0.144536,0.06194 0.01231,0.0062 0.02898,-0.0062 0.0413,0 0.0087,0.0044 0.01141,0.01757 0.02065,0.02065 0.01306,0.0044 0.02898,-0.0062 0.0413,0 0.0062,0.0031 -0.0049,0.01578 0,0.02065 0.01032,0.01032 0.05162,-0.01032 0.06194,0 0.0049,0.0049 -0.0049,0.01578 0,0.02065 0.0097,0.0097 0.02898,-0.0062 0.0413,0 0.0087,0.0044 0.01194,0.0163 0.02065,0.02065 0.02753,0.01377 0.07571,-0.01377 0.10324,0 0.03551,0.01775 0.06773,0.02354 0.10324,0.0413 0.01247,0.0062 0.0524,-0.0095 0.06194,0 0.0049,0.0049 -0.0049,0.01578 0,0.02065 0.02609,0.02609 0.140485,-0.0041 0.165184,0.02065 0.0049,0.0049 -0.0049,0.01578 0,0.02065 0.01637,0.01637 0.08223,-0.0105 0.10324,0 0.03551,0.01775 0.06773,0.02354 0.103239,0.0413 0.02607,0.01303 0.104066,-0.01982 0.123888,0 0.0049,0.0049 -0.0049,0.01578 0,0.02065 0.01377,0.01377 0.06883,-0.01377 0.08259,0 0.0049,0.0049 -0.0049,0.01578 0,0.02065 0.01727,0.01727 0.104368,0.0011 0.123887,0.02065 0.0049,0.0049 -0.0049,0.01578 0,0.02065 0.01431,0.01431 0.08893,0.0063 0.10324,0.02065 0.0049,0.0049 -0.0049,0.01578 0,0.02065 0.0097,0.0097 0.02898,-0.0062 0.0413,0 0.04801,0.024 0.09652,0.03794 0.144535,0.06194 0.01231,0.0062 0.03156,-0.0097 0.0413,0 0.0049,0.0049 -0.0049,0.01578 0,0.02065 0.01841,0.01841 0.06066,0.0097 0.08259,0.02065 0.0883,0.04415 0.127193,0.0636 0.20648,0.10324 0.02245,0.01123 0.11556,0.01232 0.123887,0.02065 0.0049,0.0049 -0.0049,0.01578 0,0.02065 0.0097,0.0097 0.02898,-0.0062 0.0413,0 0.02405,0.01202 0.03789,0.02927 0.06194,0.04129 0.01231,0.0062 0.02898,-0.0062 0.0413,0 0.02048,0.01024 0.04056,0.03417 0.06194,0.0413 0.01306,0.0044 0.02824,-0.0044 0.0413,0 0.01847,0.0062 0.02388,0.03259 0.0413,0.0413 0.01231,0.0062 0.03156,-0.0097 0.0413,0 0.0049,0.0049 -0.0049,0.01578 0,0.02065 0.03677,0.03677 0.179239,0.05535 0.20648,0.08259 0.0049,0.0049 -0.0049,0.01578 0,0.02065 0.0095,0.0095 0.06635,0.03318 0.08259,0.0413 0.01231,0.0062 0.03156,-0.0097 0.0413,0 0.0049,0.0049 -0.0049,0.01578 0,0.02065 0.0097,0.0097 0.02898,-0.0062 0.04129,0 0.02405,0.01203 0.03789,0.02927 0.06194,0.0413 0.01231,0.0062 0.03156,-0.0097 0.0413,0 0.0049,0.0049 -0.0049,0.01578 0,0.02065 0.0048,0.0048 0.07573,0.03901 0.08259,0.0413 0.01306,0.0044 0.03156,-0.0097 0.0413,0 0.0049,0.0049 -0.0049,0.01578 0,0.02065 0.02599,0.02599 0.159845,0.05661 0.185831,0.08259 0.0049,0.0049 -0.0049,0.01578 0,0.02065 0.0058,0.0058 0.144275,0.07214 0.165184,0.08259 0.01231,0.0062 0.02898,-0.0062 0.0413,0 0.02405,0.01203 0.03789,0.02927 0.06194,0.0413 0.01231,0.0062 0.03156,-0.0097 0.0413,0 0.0049,0.0049 -0.0049,0.01578 0,0.02065 0.0157,0.0157 0.08158,0.0098 0.10324,0.02065 0.06383,0.03192 0.1173,0.05975 0.185831,0.08259 0.05679,0.01893 0.129289,0.02245 0.185832,0.0413 0.149562,0.04985 -0.03255,-0.006 0.06194,0.0413 0.03444,0.01722 0.08654,0.01131 0.123887,0.02065 0.01908,0.0048 0.04309,0.03501 0.06194,0.0413 0.01306,0.0044 0.02824,-0.0044 0.0413,0 0.02139,0.0071 0.04146,0.03105 0.06194,0.0413 0.01247,0.0062 0.0524,-0.0095 0.06194,0 0.0049,0.0049 -0.0049,0.01578 0,0.02065 0.0095,0.0095 0.04948,-0.0062 0.06194,0 0.04092,0.02046 0.03568,0.005 0.08259,0.02065 0.02139,0.0071 0.04146,0.03105 0.06194,0.0413 0.01231,0.0062 0.03156,-0.0097 0.0413,0 0.0049,0.0049 -0.0049,0.01578 0,0.02065 0.01032,0.01032 0.05162,-0.01032 0.06194,0 0.0049,0.0049 -0.0049,0.01578 0,0.02065 0.01032,0.01032 0.05162,-0.01032 0.06194,0 0.0049,0.0049 -0.0049,0.01578 0,0.02065 0.01032,0.01032 0.05162,-0.01032 0.06194,0 0.0049,0.0049 -0.0049,0.01578 0,0.02065 0.01982,0.01982 0.09782,-0.01303 0.123887,0 0.0087,0.0044 0.01194,0.0163 0.02065,0.02065 0.01018,0.0051 0.297956,0.0059 0.30972,0 0.0533,-0.02665 0.07059,-0.03529 0.123887,-0.06194 0.01643,-0.0082 0.112148,-0.0089 0.123888,-0.02065 0.0049,-0.0049 -0.0049,-0.01578 0,-0.02065 0.0043,-0.0043 0.127285,-0.01202 0.144536,-0.02065 0.03665,-0.01833 0.06659,-0.04362 0.103239,-0.06194 0.01231,-0.0062 0.03156,0.0097 0.0413,0 0.04272,-0.04272 -0.06528,0.0017 0.02065,-0.0413 0.0062,-0.0031 0.01578,0.0049 0.02065,0 0.0049,-0.0049 -0.0049,-0.01578 0,-0.02065 0.0049,-0.0049 0.01449,0.0031 0.02065,0 0.02478,-0.01239 0.03717,-0.04956 0.06194,-0.06194 0.0062,-0.0031 0.01578,0.0049 0.02065,0 0.0049,-0.0049 -0.0049,-0.01578 0,-0.02065 0.0049,-0.0049 0.01578,0.0049 0.02065,0 0.01352,-0.01352 0.01284,-0.04772 0.0413,-0.06194 0.02193,-0.01096 0.06419,-0.0022 0.08259,-0.02065 0.0011,-0.0011 0.04018,-0.06082 0.0413,-0.06194 0.0049,-0.0049 0.01578,0.0049 0.02065,0 0.0049,-0.0049 -0.0049,-0.01578 0,-0.02065 0.0049,-0.0049 0.01449,0.0031 0.02065,0 0.03838,-0.01919 0.06709,-0.07224 0.08259,-0.10324 0.04296,-0.08593 -0.0014,0.02207 0.04129,-0.02065 0.01539,-0.01539 0.0053,-0.04655 0.02065,-0.06194 0.0049,-0.0049 0.01578,0.0049 0.02065,0 0.0084,-0.0084 0.09767,-0.112747 0.103239,-0.123888 0.0031,-0.0062 -0.0049,-0.01578 0,-0.02065 0.0049,-0.0049 0.01578,0.0049 0.02065,0 0.0049,-0.0049 -0.0049,-0.01578 0,-0.02065 0.0049,-0.0049 0.01578,0.0049 0.02065,0 0.0011,-0.0011 0.04018,-0.06082 0.0413,-0.06194 0.01032,-0.01032 0.03097,-0.01032 0.0413,-0.02065 0.01197,-0.01197 0.02933,-0.07062 0.0413,-0.08259 0.0011,-0.0011 0.06083,-0.04018 0.06194,-0.0413 0.0049,-0.0049 -0.0049,-0.01578 0,-0.02065 0.0049,-0.0049 0.02065,-0.0069 0.02065,0 0,0.0097 -0.01757,0.01141 -0.02065,0.02065 -0.0044,0.01306 0.0062,0.02898 0,0.0413 -0.0031,0.0062 -0.01449,-0.0031 -0.02065,0 -0.01377,0.0069 -0.03604,0.0413 -0.02065,0.0413 0.01377,0 -0.0062,-0.02898 0,-0.0413 0.01506,-0.03011 0.03303,-0.03303 0.0413,-0.0413 0.0049,-0.0049 -0.0049,-0.01578 0,-0.02065 0.01354,-0.01354 0.07225,-0.0103 0.08259,-0.02065 0.0049,-0.0049 -0.0049,-0.01578 0,-0.02065 0.0097,-0.0097 0.02898,0.0062 0.0413,0 0.02181,-0.0109 0.04173,-0.03119 0.06194,-0.04129 0.01741,-0.0087 0.02388,-0.03259 0.0413,-0.0413 0.0232,-0.0116 0.09024,-0.03594 0.10324,-0.06194 0.0031,-0.0062 -0.0049,-0.01578 0,-0.02065 0.0049,-0.0049 0.01578,0.0049 0.02065,0 0.0049,-0.0049 -0.0049,-0.01578 0,-0.02065 0.0049,-0.0049 0.01449,0.0031 0.02065,0 0.02545,-0.01273 0.09051,-0.07778 0.10324,-0.103239 0.0031,-0.0062 -0.0049,-0.01578 0,-0.02065 0.0011,-0.0011 0.06082,-0.04018 0.06194,-0.0413 0.01538,-0.01538 0.02963,-0.07092 0.0413,-0.08259 0.0049,-0.0049 0.01449,0.0031 0.02065,0 0.08593,-0.04297 -0.02207,0.0014 0.02065,-0.0413 0.0049,-0.0049 0.01449,0.0031 0.02065,0 0.08593,-0.04297 -0.02208,0.0014 0.02065,-0.04129 0.0049,-0.0049 0.01578,0.0049 0.02065,0 0.04272,-0.04272 -0.06528,0.0017 0.02065,-0.0413 0.0062,-0.0031 0.01578,0.0049 0.02065,0 0.01197,-0.01197 0.02933,-0.07062 0.0413,-0.08259 0.0011,-0.0011 0.06082,-0.04018 0.06194,-0.0413 0.04272,-0.04272 -0.06528,0.0017 0.02065,-0.0413 0.0062,-0.0031 0.01578,0.0049 0.02065,0 0.0049,-0.0049 -0.0049,-0.01578 0,-0.02065 0.0049,-0.0049 0.01578,0.0049 0.02065,0 0.0049,-0.0049 -0.0049,-0.01578 0,-0.02065 0.0049,-0.0049 0.01578,0.0049 0.02065,0 0.0012,-0.0012 0.0405,-0.06035 0.0413,-0.06194 0.01652,-0.03304 0.06607,-0.04955 0.08259,-0.08259 0.0031,-0.0062 -0.0049,-0.01578 0,-0.02065 0.01032,-0.01032 0.03097,-0.01032 0.0413,-0.02065 0.0087,-0.0087 0.01439,-0.04943 0.02065,-0.06194 0.01239,-0.02478 0.04955,-0.03717 0.06194,-0.06194 0.0031,-0.0062 -0.0049,-0.01578 0,-0.02065 0.0049,-0.0049 0.01578,0.0049 0.02065,0 0.01809,-0.01809 0.04385,-0.105795 0.06194,-0.123887 0.01032,-0.01032 0.03097,-0.01032 0.0413,-0.02065 0.0128,-0.0128 0.03138,-0.07268 0.0413,-0.08259 0.0011,-0.0011 0.06083,-0.04018 0.06194,-0.0413 0.0097,-0.0097 -0.0097,-0.03156 0,-0.0413 0.01032,-0.01032 0.03097,-0.01032 0.0413,-0.02065 0.01091,-0.01091 0.05104,-0.09233 0.06194,-0.103239 0.01032,-0.01033 0.03097,-0.01033 0.0413,-0.02065 0.01032,-0.01032 0.01032,-0.03097 0.02065,-0.04129 0.0049,-0.0049 0.01578,0.0049 0.02065,0 0.04272,-0.04272 -0.06528,0.0017 0.02065,-0.0413 0.0062,-0.0031 0.01578,0.0049 0.02065,0 0.0049,-0.0049 -0.0049,-0.01578 0,-0.02065 0.0049,-0.0049 0.01578,0.0049 0.02065,0 0.0099,-0.0099 0.0285,-0.06979 0.0413,-0.08259 0.0049,-0.0049 0.01578,0.0049 0.02065,0 0.01431,-0.01431 0.0063,-0.08893 0.02065,-0.10324 0.0049,-0.0049 0.01578,0.0049 0.02065,0 0.0097,-0.0097 -0.0097,-0.03156 0,-0.04129 0.0049,-0.0049 0.01578,0.0049 0.02065,0 0.0097,-0.0097 -0.0097,-0.03156 0,-0.0413 0.0049,-0.0049 0.01578,0.0049 0.02065,0 0.0097,-0.0097 -0.0097,-0.03156 0,-0.0413 0.0049,-0.0049 0.01578,0.0049 0.02065,0 0.0097,-0.0097 -0.0062,-0.02898 0,-0.0413 0.01202,-0.02405 0.02927,-0.03789 0.04129,-0.06194 0.0062,-0.01231 -0.0097,-0.03156 0,-0.0413 0.0049,-0.0049 0.01578,0.0049 0.02065,0 0.0095,-0.0095 0.03318,-0.06635 0.0413,-0.08259 0.01083,-0.02166 0.005,-0.08754 0.02065,-0.103239 0.0049,-0.0049 0.01578,0.0049 0.02065,0 0.01982,-0.01982 -0.01303,-0.09782 0,-0.123888 0.01927,-0.03855 0.02065,-0.056 0.02065,-0.10324 0,-0.0085 0.0055,-0.05648 0,-0.06194 -0.0049,-0.0049 -0.01578,0.0049 -0.02065,0 -0.0097,-0.0097 0,-0.02753 0,-0.04129 0,-0.06161 -0.02191,-0.286549 0,-0.330367 0.01715,-0.03431 0.02768,-0.0624 0.04129,-0.10324 0.0044,-0.01306 -0.0097,-0.03156 0,-0.0413 0.0049,-0.0049 0.01578,0.0049 0.02065,0 0.01032,-0.01032 -0.01032,-0.05162 0,-0.06194 0.0049,-0.0049 0.01757,0.0062 0.02065,0 0,-0.09399 -0.0097,-0.0012 0.02065,-0.06194 0.0062,-0.01231 -0.0097,-0.03156 0,-0.0413 0.0049,-0.0049 0.01578,0.0049 0.02065,0 0.02247,-0.02246 0.04583,-0.132958 0.06194,-0.165183 0.0245,-0.049 0.06194,-0.06491 0.06194,-0.123888"
         id="path8" /><path
         style="fill:none;stroke:#000000;stroke-width:0.335;stroke-linecap:round;stroke-dasharray:none"
         d="m -72.755504,44.545055 c 0.17639,0.0392 0.346466,0.04935 0.49555,0.123888 0.01231,0.0062 0.03156,-0.0097 0.0413,0 0.0049,0.0049 -0.0049,0.01578 0,0.02065 0.01567,0.01567 0.119195,0.04927 0.144536,0.06194 0.02478,0.01239 0.03717,0.04956 0.06194,0.06194 0.01252,0.0063 0.05329,0.012 0.06194,0.02065 0.0049,0.0049 -0.0049,0.01578 0,0.02065 0.0069,0.0069 0.0704,0.0352 0.08259,0.0413 0.01741,0.0087 0.02388,0.03259 0.0413,0.0413 0.016,0.008 0.04758,0.01108 0.06194,0.02065 0.03761,0.02508 0.04675,0.04402 0.08259,0.06194 0.01231,0.0062 0.03156,-0.0097 0.0413,0 0.0049,0.0049 -0.0049,0.01578 0,0.02065 0.01382,0.01382 0.123158,0.04057 0.123887,0.0413 0.0049,0.0049 -0.0049,0.01578 0,0.02065 0.0097,0.0097 0.02898,-0.0062 0.0413,0 0.08273,0.04136 0.168966,0.06383 0.247775,0.103239 0.01231,0.0062 0.02898,-0.0062 0.0413,0 0.0087,0.0044 0.01194,0.0163 0.02065,0.02065 0.01247,0.0062 0.0524,-0.0095 0.06194,0 0.0049,0.0049 -0.0049,0.01578 0,0.02065 0.0097,0.0097 0.02898,-0.0062 0.0413,0 0.0087,0.0044 0.01194,0.01629 0.02065,0.02065 0.04457,0.02228 0.05593,-0.01463 0.06194,-0.02065 0.01735,-0.01735 0.19418,0.01647 0.227127,0 0.03011,-0.01506 0.03303,-0.03303 0.0413,-0.0413 0.0069,-0.0069 0.05506,-0.01377 0.06194,-0.02065 0.04272,-0.04272 -0.06528,0.0017 0.02065,-0.0413 0.0062,-0.0031 0.01578,0.0049 0.02065,0 0.0049,-0.0049 -0.0049,-0.01578 0,-0.02065 0.0049,-0.0049 0.01449,0.0031 0.02065,0 0.02765,-0.01383 0.02861,-0.04926 0.0413,-0.06194 0.01268,-0.01268 0.04812,-0.01364 0.06194,-0.0413 0.02147,-0.04294 0.06653,-0.09636 0.08259,-0.144536 0.02065,-0.06195 0.03084,-0.144278 0.06194,-0.206479 0.0044,-0.0087 0.01757,-0.01141 0.02065,-0.02065 0.0044,-0.01306 -0.0044,-0.02824 0,-0.0413 0.0031,-0.0092 0.01757,-0.01141 0.02065,-0.02065 0.01658,-0.04975 0.01713,-0.07556 0.0413,-0.123888 0.0062,-0.01231 -0.0062,-0.02898 0,-0.0413 0.05674,-0.113474 0.11093,-0.237237 0.144536,-0.371663 0.02056,-0.08223 -8.7e-5,-0.164836 0.02065,-0.247775 0.01907,-0.07629 0.04285,-0.150756 0.06194,-0.227127 0.005,-0.02003 -0.0065,-0.04236 0,-0.06194 0.02661,-0.07983 0.03584,-0.169453 0.06194,-0.247775 0.0031,-0.0092 0.01757,-0.01141 0.02065,-0.02065 0.01,-0.02991 0.006,-0.07399 0.02065,-0.103239 0.0044,-0.0087 0.01757,-0.01141 0.02065,-0.02065 0.0065,-0.01959 -0.0092,-0.04348 0,-0.06194 0.02494,-0.04988 0.02279,-0.109671 0.0413,-0.165184 0.0031,-0.0092 0.01757,-0.01141 0.02065,-0.02065 0.01454,-0.0436 0.0063,-0.101498 0.02065,-0.144535 0.0031,-0.0092 0.01757,-0.01141 0.02065,-0.02065 0.01032,-0.03097 -0.01032,-0.07227 0,-0.10324 0.0031,-0.0092 0.01757,-0.01141 0.02065,-0.02065 0.01098,-0.03293 0.0088,-0.06782 0.02065,-0.10324 0.03742,-0.112248 -0.03627,-0.289626 -0.06194,-0.392311 -0.0067,-0.02671 0.0054,-0.0556 0,-0.08259 0.0047,-0.04146 -0.03231,-0.06728 -0.0413,-0.103239 -0.01947,-0.07786 -0.03623,-0.149983 -0.06194,-0.227128 -0.0065,-0.01959 0.0065,-0.04236 0,-0.06194 -0.01077,-0.03231 -0.03179,-0.06522 -0.0413,-0.103239 -0.01107,-0.04428 0.0207,-0.123779 0,-0.165184 -0.0044,-0.0087 -0.02065,-0.01091 -0.02065,-0.02065 0,-0.01377 0.03156,0.0097 0.0413,0 0.0071,-0.0071 0.0053,-0.07208 0,-0.08259 -0.02138,-0.04275 -0.04082,-0.08164 -0.06194,-0.123887 -0.0096,-0.01924 -0.0032,-0.127116 -0.02065,-0.144536 -0.0049,-0.0049 -0.01757,0.0062 -0.02065,0 -0.0062,-0.01231 0.0044,-0.02824 0,-0.0413 -0.0093,-0.02803 -0.03272,-0.0483 -0.0413,-0.08259 -0.0033,-0.01335 0.0044,-0.02824 0,-0.0413 -0.01282,-0.03846 -0.0474,-0.08025 -0.06194,-0.123888 -0.0062,-0.01858 0.0062,-0.04336 0,-0.06194 -0.01361,-0.04084 -0.02414,-0.06893 -0.0413,-0.10324 -0.0092,-0.01847 0.0065,-0.04236 0,-0.06194 -0.0071,-0.02139 -0.03105,-0.04146 -0.04129,-0.06194 -0.01482,-0.02964 -0.0099,-0.07113 -0.02065,-0.10324 -0.0145,-0.04351 -0.04914,-0.08549 -0.06194,-0.123888 -0.0065,-0.01959 0.0146,-0.04734 0,-0.06194 -0.0049,-0.0049 -0.01757,0.0062 -0.02065,0 -0.0062,-0.01231 0.0044,-0.02824 0,-0.0413 -0.0071,-0.02139 -0.03105,-0.04146 -0.0413,-0.06194 -0.0062,-0.01231 0.0097,-0.03156 0,-0.0413 -0.0049,-0.0049 -0.01578,0.0049 -0.02065,0 -0.0097,-0.0097 0.0062,-0.02898 0,-0.0413 -0.01203,-0.02405 -0.02927,-0.03789 -0.0413,-0.06194 -0.0062,-0.01231 0.0062,-0.02898 0,-0.0413 -0.0153,-0.03061 -0.02592,-0.07249 -0.0413,-0.103239 -0.02138,-0.04275 -0.04082,-0.08164 -0.06194,-0.123888 -0.0062,-0.01231 0.0097,-0.03156 0,-0.0413 -0.0049,-0.0049 -0.01578,0.0049 -0.02065,0 -0.0097,-0.0097 0.0062,-0.02898 0,-0.0413 -0.01696,-0.03393 -0.05183,-0.0628 -0.06194,-0.103239 -0.0084,-0.03342 -0.04833,-0.206706 -0.06194,-0.227128 -0.0038,-0.0057 -0.01757,0.0062 -0.02065,0 -0.0062,-0.01231 0.0044,-0.02824 0,-0.0413 -0.01935,-0.05804 -0.05772,-0.09479 -0.08259,-0.144535 -0.0063,-0.01252 -0.012,-0.05329 -0.02065,-0.06194 -0.0049,-0.0049 -0.01578,0.0049 -0.02065,0 -0.01197,-0.01197 -0.02933,-0.07062 -0.0413,-0.08259 -0.0049,-0.0049 -0.01449,0.0031 -0.02065,0 -0.08593,-0.04297 0.02208,0.0014 -0.02065,-0.0413 -0.01032,-0.01032 -0.03097,-0.01032 -0.0413,-0.02065 -0.04272,-0.04272 0.06528,0.0017 -0.02065,-0.0413 -0.0062,-0.0031 -0.01578,0.0049 -0.02065,0 -0.01238,-0.01238 -0.05299,-0.105982 -0.06194,-0.123887 -0.02376,-0.04752 -0.07926,-0.07592 -0.103239,-0.123888 -0.02543,-0.05085 0.05993,0.01864 -0.02065,-0.06194 -0.0049,-0.0049 -0.01578,0.0049 -0.02065,0 -0.0069,-0.0069 -0.01377,-0.05506 -0.02065,-0.06194 -0.0049,-0.0049 -0.01578,0.0049 -0.02065,0 -0.0049,-0.0049 0.0049,-0.01578 0,-0.02065 -0.01032,-0.01032 -0.03097,-0.01032 -0.0413,-0.02065 -0.01088,-0.01088 -0.0098,-0.03041 -0.02065,-0.0413 -0.02224,-0.02224 -0.05073,-0.03009 -0.06194,-0.0413 -0.0049,-0.0049 0.0049,-0.01578 0,-0.02065 -0.03335,-0.03335 -0.228871,-0.145407 -0.268423,-0.165184 -0.06648,-0.03324 -0.128715,-0.123887 -0.185832,-0.123887 -0.138583,-0.05036 -0.178564,-0.157889 -0.268423,-0.247748 -0.01466,-0.01466 -0.05828,-0.03763 -0.06194,-0.0413 -0.0049,-0.0049 0.0031,-0.01449 0,-0.02065 -0.02283,-0.04565 -0.01282,-0.0064 -0.0413,-0.02065 -0.02478,-0.01239 -0.03717,-0.04955 -0.06194,-0.06194 -0.03327,-0.01664 -0.06921,-0.02428 -0.103239,-0.0413 -0.01231,-0.0062 -0.02898,0.0062 -0.0413,0 -0.01741,-0.0087 -0.02388,-0.03259 -0.0413,-0.0413 -0.01231,-0.0062 -0.03156,0.0097 -0.0413,0 -0.04272,-0.04272 0.06528,0.0017 -0.02065,-0.0413 -0.0246,-0.0123 -0.08459,-0.02265 -0.10324,-0.0413 -0.0049,-0.0049 0.0049,-0.01578 0,-0.02065 -0.0069,-0.0069 -0.05506,-0.01376 -0.06194,-0.02065 -0.0049,-0.0049 0.0049,-0.01578 0,-0.02065 -0.0069,-0.0069 -0.05506,-0.01376 -0.06194,-0.02065 -0.0049,-0.0049 0.0049,-0.01578 0,-0.02065 -0.0069,-0.0069 -0.05506,-0.01376 -0.06194,-0.02065 -0.0049,-0.0049 0.0049,-0.01578 0,-0.02065 -0.0097,-0.0097 -0.03156,0.0097 -0.0413,0 -0.0049,-0.0049 0.0049,-0.01578 0,-0.02065 -0.01539,-0.01539 -0.04383,-0.0086 -0.06194,-0.02065 -0.03283,-0.02189 -0.0059,-0.04424 -0.0413,-0.06194 -0.01251,-0.0063 -0.05329,-0.012 -0.06194,-0.02065 -0.0049,-0.0049 0.0049,-0.01578 0,-0.02065 -0.0049,-0.0049 -0.01449,0.0031 -0.02065,0 -0.03304,-0.01652 -0.04955,-0.06607 -0.08259,-0.08259 -0.07401,-0.037 -0.145148,-0.0829 -0.227128,-0.123888 -0.01276,-0.0064 -0.07494,-0.01299 -0.08259,-0.02065 -0.0049,-0.0049 0.0049,-0.01578 0,-0.02065 -0.0058,-0.0058 -0.144275,-0.07214 -0.165184,-0.08259 -0.01231,-0.0062 -0.02898,0.0062 -0.0413,0 -0.106025,-0.05301 -0.228339,-0.06235 -0.351015,-0.10324 -0.02478,-0.0083 -0.05781,0.0083 -0.08259,0 -0.0092,-0.0031 -0.01194,-0.01629 -0.02065,-0.02065 -0.01847,-0.0092 -0.04191,0.005 -0.06194,0 -0.08739,-0.02185 -0.192133,-0.04445 -0.268424,-0.08259 -0.01719,-0.0086 -0.06949,0.0131 -0.08259,0 -0.0049,-0.0049 0.0049,-0.01578 0,-0.02065 -0.0282,-0.0282 -0.157636,0.0075 -0.185832,-0.02065 -0.0049,-0.0049 0.0062,-0.01757 0,-0.02065 -0.02753,-0.01377 -0.07571,0.01376 -0.103239,0 -0.06579,-0.0329 -0.131333,-0.0037 -0.165184,-0.02065 -0.08498,-0.04249 -0.228911,-0.02065 -0.330367,-0.02065 -0.306411,0 -0.600398,-0.02065 -0.90851,-0.02065 -0.04858,0 -0.0842,8.04e-4 -0.123887,0.02065 -0.02251,0.01126 -0.06201,0.103175 -0.08259,0.08259 -0.0097,-0.0097 0.0097,-0.03156 0,-0.04129 -0.02753,-0.02753 -0.02065,0.03441 -0.02065,-0.02065"
         id="path9" /><path
         style="fill:none;stroke:#000000;stroke-width:0.335;stroke-linecap:round;stroke-dasharray:none"
         d="m -76.451486,36.409766 c -0.06563,0.01421 -0.11289,0.0358 -0.165184,0.06194 -0.02166,0.01083 -0.08676,-0.01648 -0.103239,0 -0.0049,0.0049 0.0049,0.01578 0,0.02065 -0.0067,0.0067 -0.220406,0.01393 -0.227127,0.02065 -0.0049,0.0049 0.0049,0.01578 0,0.02065 -0.02069,0.02069 -0.09627,-0.01381 -0.123888,0 -0.05782,0.02891 -0.09116,0.0029 -0.144536,0.02065 -0.0092,0.0031 -0.01194,0.01629 -0.02065,0.02065 -0.02188,0.01094 -0.0592,-0.0078 -0.08259,0 -0.0794,0.02647 -0.147728,0.03548 -0.227127,0.06194 -0.03508,0.01169 -0.218499,0.01202 -0.227127,0.02065 -0.0049,0.0049 0.0049,0.01578 0,0.02065 -0.01833,0.01833 -0.09835,0.0079 -0.123888,0.02065 -0.08788,0.04394 -0.201047,0.05923 -0.289071,0.10324 -0.01847,0.0092 -0.04191,-0.005 -0.06194,0 -0.03808,0.0095 -0.0526,0.0263 -0.08259,0.0413 -0.01775,0.0089 -0.143599,0.0305 -0.165183,0.0413 -0.03542,0.01771 -0.06112,0.0479 -0.10324,0.06194 -0.01306,0.0044 -0.02824,-0.0044 -0.0413,0 -0.03852,0.01284 -0.05143,0.02572 -0.08259,0.0413 -0.01631,0.0082 -0.04453,-0.0058 -0.06194,0 -0.03852,0.01284 -0.05144,0.02572 -0.08259,0.0413 -0.01652,0.0083 -0.04543,-0.0083 -0.06194,0 -0.0087,0.0044 -0.01194,0.01629 -0.02065,0.02065 -0.01247,0.0062 -0.0524,-0.0095 -0.06194,0 -0.0049,0.0049 0.0049,0.01578 0,0.02065 -0.0095,0.0095 -0.04948,-0.0062 -0.06194,0 -0.03334,0.01667 -0.216139,0.0716 -0.227128,0.08259 -0.0049,0.0049 0.0062,0.01757 0,0.02065 -0.01231,0.0062 -0.02824,-0.0044 -0.0413,0 -0.02139,0.0071 -0.04146,0.03105 -0.06194,0.04129 -0.0368,0.0184 -0.08589,0.04295 -0.123887,0.06194 -0.01231,0.0062 -0.02898,-0.0062 -0.0413,0 -0.03349,0.01675 -0.06813,0.04439 -0.10324,0.06194 -0.01231,0.0062 -0.03156,-0.0097 -0.0413,0 -0.0083,0.0083 -0.01118,0.02624 -0.0413,0.0413 -0.01231,0.0062 -0.03156,-0.0097 -0.0413,0 -0.0049,0.0049 0.0049,0.01578 0,0.02065 -0.01368,0.01368 -0.02761,-0.01368 -0.0413,0 -0.01032,0.01032 -0.01032,0.03097 -0.02065,0.0413 -0.03501,0.03501 -0.104907,0.04213 -0.144535,0.06194 -0.06041,0.03021 -0.106789,0.09469 -0.165184,0.123887 -0.01231,0.0062 -0.03156,-0.0097 -0.0413,0 -0.0049,0.0049 0.0049,0.01578 0,0.02065 -0.0069,0.0069 -0.0704,0.0352 -0.08259,0.04129 -0.03974,0.01987 -0.06596,0.05774 -0.10324,0.08259 -0.02173,0.01448 -0.107951,0.04601 -0.123888,0.06194 -0.0049,0.0049 0.0049,0.01578 0,0.02065 -0.0097,0.0097 -0.02824,-0.0044 -0.0413,0 -0.02631,0.0088 -0.06065,0.03033 -0.08259,0.0413 -0.03011,0.01506 -0.03303,0.03303 -0.0413,0.0413 -0.0097,0.0097 -0.03156,-0.0097 -0.0413,0 -0.0049,0.0049 0.0049,0.01578 0,0.02065 -0.0071,0.0071 -0.145825,0.07291 -0.165184,0.08259 -7.67e-4,3.97e-4 -0.09818,0.03961 -0.10324,0.0413 -0.01306,0.0044 -0.02898,-0.0062 -0.0413,0 -0.0062,0.0031 0.0049,0.01578 0,0.02065 -0.0097,0.0097 -0.02898,-0.0062 -0.0413,0 -0.03349,0.01675 -0.06813,0.04439 -0.10324,0.06194 -0.0062,0.0031 -0.01578,-0.0049 -0.02065,0 -0.0049,0.0049 0.0049,0.01578 0,0.02065 -0.01345,0.01345 -0.06578,0.03009 -0.08259,0.0413 -0.03569,0.0238 -0.06023,0.09206 -0.08259,0.10324 -0.04103,0.02051 -0.02258,0.02257 -0.0413,0.0413 -0.0049,0.0049 -0.01578,-0.0049 -0.02065,0 -0.0049,0.0049 0.0049,0.01578 0,0.02065 -0.0049,0.0049 -0.01578,-0.0049 -0.02065,0 -0.0049,0.0049 0.0049,0.01578 0,0.02065 -0.0049,0.0049 -0.01578,-0.0049 -0.02065,0 -0.01088,0.01088 -0.0098,0.03041 -0.02065,0.0413 -0.0049,0.0049 -0.01578,-0.0049 -0.02065,0 -0.0049,0.0049 0.0049,0.01578 0,0.02065 -0.0049,0.0049 -0.01578,-0.0049 -0.02065,0 -0.0049,0.0049 0.0049,0.01578 0,0.02065 -0.0049,0.0049 -0.01578,-0.0049 -0.02065,0 -0.0049,0.0049 0.0049,0.01578 0,0.02065 -0.0011,0.0011 -0.06082,0.04018 -0.06194,0.04129 -0.0011,0.0011 -0.04018,0.06083 -0.0413,0.06194 -0.01088,0.01088 -0.02849,0.01211 -0.0413,0.02065 -0.04719,0.03146 -0.205495,0.183863 -0.227128,0.227128 -0.0031,0.0062 0.0049,0.01578 0,0.02065 -0.01088,0.01088 -0.03041,0.0098 -0.0413,0.02065 -0.0049,0.0049 0.0031,0.01449 0,0.02065 -0.02156,0.04312 -0.07568,0.08256 -0.103239,0.123888 -0.03162,0.04744 -0.01179,-0.0089 -0.06194,0.04129 -0.01167,0.01167 -0.02592,0.06721 -0.0413,0.08259 -0.0049,0.0049 -0.01578,-0.0049 -0.02065,0 -0.05415,0.05416 -0.08253,0.123791 -0.123888,0.185832 -0.0054,0.0081 -0.01377,0.01377 -0.02065,0.02065 -0.01377,0.01377 -0.0305,0.0251 -0.0413,0.0413 -0.0339,0.05084 -0.05578,0.111557 -0.08259,0.165183 -0.0087,0.01741 -0.03259,0.02388 -0.0413,0.0413 -0.0062,0.01231 0.0062,0.02898 0,0.0413 -0.03701,0.07402 -0.04738,0.156696 -0.08259,0.227127 -0.0082,0.01631 0.0058,0.04453 0,0.06194 -0.0145,0.04351 -0.04914,0.08549 -0.06194,0.123888 -0.01012,0.03036 -0.0064,0.07471 -0.02065,0.10324 -0.0044,0.0087 -0.01829,0.01121 -0.02065,0.02065 -0.01247,0.04988 -0.0043,0.116199 -0.02065,0.165183 -0.03038,0.09115 -0.02065,-0.07502 -0.02065,0.06194 0,0.06646 0.0049,-0.03525 -0.02065,0.0413 -0.01416,0.04248 -0.02381,0.171502 -0.0413,0.20648 -0.02723,0.05445 -0.03353,0.129011 -0.06194,0.185831 -0.0044,0.0087 -0.01757,0.01141 -0.02065,0.02065 -0.0065,0.01959 0.0092,0.04348 0,0.06194 -0.01776,0.03553 -0.02349,0.06762 -0.0413,0.103239 -0.0083,0.01652 0.0083,0.04543 0,0.06194 -0.02058,0.04115 -0.02946,0.04405 -0.0413,0.10324 -0.01048,0.05239 0.0015,0.05891 -0.02065,0.10324 -0.028,0.05599 0.02003,0.146393 0,0.206479 -0.02498,0.07495 -0.03442,0.158291 0,0.227127 0.03513,0.07026 -0.02679,0.27066 0,0.351015 0.02653,0.07959 0.0413,0.186135 0.0413,0.268424 0,0.04817 0.05632,0.510579 0.06194,0.516198 0.0049,0.0049 0.01377,0 0.02065,0 -0.0069,0.04816 -0.02059,0.09584 -0.02057,0.14449 4.4e-5,0.104354 0.01585,0.01585 0.0413,0.0413 0.03445,0.03445 0.04469,0.06874 0.06194,0.10324 0.018,0.036 0.108531,0.126533 0.144535,0.144536 0.0062,0.0031 0.01578,-0.0049 0.02065,0 0.0017,0.0017 0.08091,0.1222 0.08259,0.123887 0.0049,0.0049 0.01578,-0.0049 0.02065,0 0.0069,0.0069 0.01377,0.05506 0.02065,0.06194 0.0045,0.0045 0.03928,0.01662 0.0413,0.02065 0.0062,0.01231 -0.0044,0.02824 0,0.0413 0.0082,0.02446 0.05034,0.03873 0.06194,0.06194 0.0031,0.0062 -0.0049,0.01578 0,0.02065 0.0049,0.0049 0.01578,-0.0049 0.02065,0 0.01197,0.01197 0.02933,0.07062 0.0413,0.08259 0.0049,0.0049 0.01578,-0.0049 0.02065,0 0.0049,0.0049 -0.0031,0.01449 0,0.02065 0.01239,0.02478 0.04956,0.03717 0.06194,0.06194 0.0031,0.0062 -0.0049,0.01578 0,0.02065 0.04272,0.04272 -0.0017,-0.06528 0.0413,0.02065 0.0062,0.01231 -0.0097,0.03156 0,0.0413 0.0049,0.0049 0.01578,-0.0049 0.02065,0 0.0049,0.0049 -0.0031,0.01449 0,0.02065 0.01652,0.03304 0.06607,0.04955 0.08259,0.08259 0.02095,0.04189 0.07036,0.07878 0.10324,0.144535 0.01639,0.03277 0.06897,0.04832 0.08259,0.06194 0.01124,0.01124 0.0464,0.0877 0.06194,0.10324 0.04272,0.04272 -0.0017,-0.06528 0.0413,0.02065 0.02603,0.05206 0.147986,0.166909 0.227127,0.206479 0.03636,0.01818 0.02671,0.0591 0.06194,0.08259 0.01145,0.0076 0.02898,-0.0062 0.0413,0 0.01376,0.0069 0.0069,0.03441 0.02065,0.0413 0.01251,0.0063 0.05329,0.01199 0.06194,0.02065 0.0049,0.0049 -0.0031,0.01449 0,0.02065 0.01356,0.02712 0.06075,0.03037 0.08259,0.0413 0.03162,0.01581 0.01615,0.0368 0.0413,0.06194 0.02515,0.02515 0.04613,0.0097 0.06194,0.0413 0.0031,0.0062 -0.0049,0.01578 0,0.02065 0.04272,0.04272 -0.0017,-0.06528 0.0413,0.02065 0.0031,0.0062 -0.0049,0.01578 0,0.02065 0.0049,0.0049 0.01449,-0.0031 0.02065,0 0.03304,0.01652 0.04955,0.06607 0.08259,0.08259 0.0062,0.0031 0.01578,-0.0049 0.02065,0 0.0049,0.0049 -0.0049,0.01578 0,0.02065 0.01124,0.01124 0.0877,0.0464 0.10324,0.06194 0.02515,0.02515 0.0097,0.04613 0.0413,0.06194 0.0062,0.0031 0.01578,-0.0049 0.02065,0 0.0049,0.0049 -0.0049,0.01578 0,0.02065 0.0049,0.0049 0.01449,-0.0031 0.02065,0 0.0413,0.02065 0.06194,0.08259 0.10324,0.10324 0.0062,0.0031 0.01578,-0.0049 0.02065,0 0.0049,0.0049 -0.0031,0.01449 0,0.02065 0.01711,0.03422 0.05919,0.03854 0.08259,0.06194 0.05015,0.05015 -0.0061,0.03032 0.0413,0.06194 0.06146,0.04097 0.172428,0.117729 0.206479,0.185831 0.0031,0.0062 -0.0049,0.01578 0,0.02065 0.04272,0.04272 -0.0017,-0.06528 0.0413,0.02065 0.01275,0.02551 0.187398,0.238235 0.206479,0.247775 0.0062,0.0031 0.01578,-0.0049 0.02065,0 0.01088,0.01088 0.01211,0.02849 0.02065,0.0413 0.02236,0.03354 0.08808,0.105984 0.123888,0.123888 0.0062,0.0031 0.01578,-0.0049 0.02065,0 0.0049,0.0049 -0.0049,0.01578 0,0.02065 0.0049,0.0049 0.01578,-0.0049 0.02065,0 0.0049,0.0049 -0.0031,0.01449 0,0.02065 0.04297,0.08593 -0.0014,-0.02207 0.0413,0.02065 0.04272,0.04272 -0.06528,-0.0017 0.02065,0.0413 0.0062,0.0031 0.01578,-0.0049 0.02065,0 0.0049,0.0049 -0.0031,0.01449 0,0.02065 0.04297,0.08593 -0.0014,-0.02207 0.0413,0.02065 0.04272,0.04272 -0.06528,-0.0017 0.02065,0.04129 0.0062,0.0031 0.01578,-0.0049 0.02065,0 0.0049,0.0049 -0.0049,0.01578 0,0.02065 0.0049,0.0049 0.01449,-0.0031 0.02065,0 0.0413,0.02065 0.06194,0.08259 0.10324,0.10324 0.01219,0.0061 0.07574,0.03445 0.08259,0.0413 0.0049,0.0049 -0.0031,0.01449 0,0.02065 0.0032,0.0064 0.135062,0.119151 0.144535,0.123888 0.0062,0.0031 0.01578,-0.0049 0.02065,0 0.0049,0.0049 -0.0049,0.01578 0,0.02065 0.0011,0.0011 0.06082,0.04018 0.06194,0.04129 0.0049,0.0049 -0.0049,0.01578 0,0.02065 0.009,0.009 0.09275,0.05146 0.10324,0.06194 0.01088,0.01088 0.0098,0.03041 0.02065,0.0413 0.01539,0.01539 0.04383,0.0086 0.06194,0.02065 0.0409,-0.0021 0.0098,0.03041 0.02065,0.0413 0.0087,0.0087 0.04943,0.01439 0.06194,0.02065 0.02907,0.01453 0.05831,0.06438 0.08259,0.08259 -0.0024,0.03912 0.04818,0.01376 0.06194,0.02065 0.03968,0.01984 0.06356,0.06275 0.10324,0.08259 0.120746,0.06037 0.237084,0.120324 0.371663,0.165184 0.08448,0.02816 0.143372,0.09597 0.227127,0.123887 0.01306,0.0044 0.02898,-0.0062 0.0413,0 0.0062,0.0031 -0.0049,0.01578 0,0.02065 0.01088,0.01088 0.02753,0.01377 0.0413,0.02065 0.02603,0.01302 0.07554,0.0068 0.10324,0.02065 0.05648,0.02824 0.108706,0.05435 0.165183,0.08259 0.01847,0.0092 0.04236,-0.0065 0.06194,0 0.0126,0.0042 0.04934,0.0371 0.06194,0.0413 0.02092,0.007 0.112144,0.0089 0.123887,0.02065 0.0049,0.0049 -0.0065,0.01847 0,0.02065 0.01959,0.0065 0.04191,-0.005 0.06194,0 0.0094,0.0024 0.01194,0.0163 0.02065,0.02065 0.01999,0.01 0.0392,-10e-4 0.08259,0.02065 0.01847,0.0092 0.04236,-0.0065 0.06194,0 0.0092,0.0031 0.01194,0.01629 0.02065,0.02065 0.01231,0.0062 0.03156,-0.0097 0.0413,0 0.0049,0.0049 -0.0049,0.01578 0,0.02065 0.02344,0.02343 0.141748,-0.0028 0.165183,0.02065 0.0049,0.0049 -0.0049,0.01578 0,0.02065 0.01721,0.01721 0.08603,-0.01721 0.10324,0 0.0049,0.0049 -0.0049,0.01578 0,0.02065 0.01648,0.01648 0.08158,-0.01083 0.10324,0 0.0087,0.0044 0.01194,0.01629 0.02065,0.02065 0.04073,0.02037 0.136306,-0.0062 0.165183,-0.02065 0.06607,-0.03304 0.181702,0.03304 0.247775,0 0.02405,-0.01203 0.03789,-0.02927 0.06194,-0.04129 0.02193,-0.01097 0.06419,-0.0022 0.08259,-0.02065 0.0049,-0.0049 -0.0049,-0.01578 0,-0.02065 0.01032,-0.01032 0.05162,0.01032 0.06194,0 0.0049,-0.0049 -0.0049,-0.01578 0,-0.02065 0.0083,-0.0083 0.101432,-0.0094 0.123887,-0.02065 0.06726,-0.03363 0.136225,-0.06811 0.20648,-0.10324 0.01231,-0.0062 0.03156,0.0097 0.0413,0 0.0049,-0.0049 -0.0049,-0.01578 0,-0.02065 0.01354,-0.01354 0.07225,-0.0103 0.08259,-0.02065 0.0049,-0.0049 -0.0049,-0.01578 0,-0.02065 0.0069,-0.0069 0.05506,-0.01376 0.06194,-0.02065 0.01032,-0.01032 0.01032,-0.03097 0.02065,-0.0413 0.01823,-0.01823 0.08259,-0.02888 0.08259,-0.06194 0.03212,-0.0092 0.278602,-0.07222 0.309685,-0.103299 0.0049,-0.0049 -0.0049,-0.01578 0,-0.02065 0.0038,-0.0038 0.05814,-0.01684 0.06194,-0.02065 0.0049,-0.0049 -0.0031,-0.01449 0,-0.02065 0.04297,-0.08593 -0.0014,0.02207 0.0413,-0.02065 0.0092,-0.0092 0.05657,-0.09787 0.06194,-0.10324 0.0099,-0.0099 0.06979,-0.0285 0.08259,-0.04129 0.02126,-0.02126 0.02004,-0.04069 0.0413,-0.06194 0.02224,-0.02224 0.05073,-0.03009 0.06194,-0.0413 0.0049,-0.0049 -0.0049,-0.01578 0,-0.02065 0.0049,-0.0049 0.01578,0.0049 0.02065,0 0.01538,-0.01538 0.02963,-0.07093 0.0413,-0.08259 0.0049,-0.0049 0.01449,0.0031 0.02065,0 0.05781,-0.02891 0.08672,-0.115628 0.144536,-0.144535 0.04999,-0.025 0.09454,-0.07824 0.144535,-0.10324 0.0413,-0.02065 0.06194,-0.08259 0.10324,-0.10324 0.0062,-0.0031 0.01578,0.0049 0.02065,0 0.0049,-0.0049 -0.0049,-0.01578 0,-0.02065 0.0049,-0.0049 0.01578,0.0049 0.02065,0 0.04272,-0.04272 -0.06528,0.0017 0.02065,-0.0413 0.0062,-0.0031 0.01578,0.0049 0.02065,0 0.0049,-0.0049 -0.0031,-0.01449 0,-0.02065 0.02727,-0.05454 0.105999,-0.08535 0.144535,-0.123887 0.0049,-0.0049 -0.0031,-0.01449 0,-0.02065 0.0012,-0.0023 0.182298,-0.153093 0.20648,-0.165184 0.0033,-0.0017 0.07529,-0.09594 0.08259,-0.10324 0.01088,-0.01088 0.02849,-0.01211 0.0413,-0.02065 0.02822,-0.01881 0.02957,-0.03849 0.0413,-0.06194 0.0196,-0.0392 0.07547,-0.05483 0.10324,-0.08259 0.02468,-0.02468 0.04819,-0.07573 0.06194,-0.10324 0.02283,-0.04565 0.01282,-0.0064 0.0413,-0.02065 0.02989,-0.01495 0.08978,-0.07632 0.103239,-0.103239 0.0031,-0.0062 -0.0049,-0.01578 0,-0.02065 0.0049,-0.0049 0.01449,0.0031 0.02065,0 0.05473,-0.02736 0.09148,-0.09736 0.144536,-0.123888 0.08593,-0.04297 -0.02207,0.0014 0.02065,-0.0413 0.01091,-0.01091 0.09233,-0.05104 0.10324,-0.06194 0.0049,-0.0049 -0.0049,-0.01578 0,-0.02065 0.01149,-0.01149 0.118625,-0.07733 0.123887,-0.08259 0.04272,-0.04272 -0.06528,0.0017 0.02065,-0.0413 0.03656,-0.01828 0.06502,-0.06348 0.10324,-0.08259 0.0062,-0.0031 0.01578,0.0049 0.02065,0 0.0049,-0.0049 -0.0049,-0.01578 0,-0.02065 0.0049,-0.0049 0.01578,0.0049 0.02065,0 0.0049,-0.0049 -0.0049,-0.01578 0,-0.02065 0.0049,-0.0049 0.01578,0.0049 0.02065,0 0.0049,-0.0049 -0.0049,-0.01578 0,-0.02065 0.01088,-0.01088 0.03041,-0.0098 0.0413,-0.02065 0.03093,-0.03093 0.08432,-0.0654 0.103239,-0.10324 0.0031,-0.0062 -0.0049,-0.01578 0,-0.02065 0.0049,-0.0049 0.01578,0.0049 0.02065,0 0.01197,-0.01197 0.02933,-0.07062 0.0413,-0.08259 0.0049,-0.0049 0.01578,0.0049 0.02065,0 0.0069,-0.0069 0.01376,-0.05506 0.02065,-0.06194 0.0049,-0.0049 0.01578,0.0049 0.02065,0 0.01091,-0.01091 0.05104,-0.09233 0.06194,-0.10324 0.01352,-0.01352 0.04772,-0.01284 0.06194,-0.0413 0.0085,-0.01701 0.0084,-0.02902 0.02065,-0.0413 0.0049,-0.0049 0.01578,0.0049 0.02065,0 0.0049,-0.0049 -0.0031,-0.01449 0,-0.02065 0.04296,-0.08593 -0.0014,0.02207 0.04129,-0.02065 0.0049,-0.0049 -0.0049,-0.01578 0,-0.02065 0.0069,-0.0069 0.05506,-0.01377 0.06194,-0.02065 0.0049,-0.0049 -0.0049,-0.01578 0,-0.02065 0.0097,-0.0097 0.03156,0.0097 0.0413,0 0.0049,-0.0049 -0.0049,-0.01578 0,-0.02065 0.01264,-0.01264 0.131343,-0.04502 0.165184,-0.06194 0.01847,-0.0092 0.04236,0.0065 0.06194,0 0.02803,-0.0093 0.04831,-0.03272 0.08259,-0.0413 0.01336,-0.0033 0.02898,0.0062 0.0413,0 0.0062,-0.0031 -0.0049,-0.01578 0,-0.02065 0.0097,-0.0097 0.02898,0.0062 0.0413,0 0.03248,-0.01624 0.02341,-0.02065 0.06194,-0.02065"
         id="path10" /><path
         style="fill:none;stroke:#000000;stroke-width:0.335;stroke-linecap:round;stroke-dasharray:none"
         d="m -82.212262,41.571751 c -0.02798,0.07254 -0.04814,0.158228 -0.08259,0.227128 -0.0087,0.01741 -0.03128,0.0246 -0.0413,0.0413 -0.02818,0.04697 -0.108117,0.179814 -0.123888,0.227127 -0.0045,0.01341 -0.04108,0.144319 -0.0413,0.144535 -0.0049,0.0049 -0.01578,-0.0049 -0.02065,0 -0.01271,0.01271 -0.01289,0.08772 -0.02065,0.10324 -0.0031,0.0062 -0.01757,-0.0062 -0.02065,0 -0.0062,0.01231 0.0044,0.02824 0,0.0413 -0.0083,0.02481 -0.03503,0.05753 -0.0413,0.08259 -0.005,0.02003 0.005,0.04191 0,0.06194 -0.0087,0.03463 -0.04569,0.07073 -0.06194,0.103239 -0.0062,0.01231 0.0097,0.03156 0,0.0413 -0.0049,0.0049 -0.01683,-0.0057 -0.02065,0 -0.03595,0.05392 -0.0012,0.06437 -0.02065,0.10324 -0.0087,0.01741 -0.03259,0.02388 -0.0413,0.0413 -0.01385,0.0277 -0.0076,0.07721 -0.02065,0.10324 -0.0087,0.01741 -0.03259,0.02388 -0.0413,0.0413 -0.0062,0.01231 0.0062,0.02898 0,0.04129 -0.01203,0.02405 -0.02927,0.03789 -0.0413,0.06194 -0.0062,0.01231 0.0097,0.03156 0,0.0413 -0.0049,0.0049 -0.01578,-0.0049 -0.02065,0 -0.0093,0.0093 -0.07126,0.121873 -0.08259,0.144536 -0.0062,0.01231 0.0097,0.03156 0,0.0413 -0.0049,0.0049 -0.01578,-0.0049 -0.02065,0 -0.0059,0.0059 -0.09146,0.18292 -0.10324,0.206479 -0.01463,0.02925 -0.01068,0.07333 -0.02065,0.10324 -0.0062,0.01847 -0.03259,0.02388 -0.04129,0.0413 -0.0092,0.01847 0.0065,0.04236 0,0.06194 -0.0031,0.0092 -0.01629,0.01194 -0.02065,0.02065 -0.0062,0.01231 0.0062,0.02898 0,0.0413 -0.01491,0.02981 -0.02639,0.05278 -0.0413,0.08259 -0.01377,0.02753 0.01376,0.07571 0,0.10324 -0.0044,0.0087 -0.01757,0.01141 -0.02065,0.02065 -0.02375,0.07126 0,0.546235 0,0.660734 0,0.04081 0.01279,0.106163 0,0.144536 -0.03904,0.11712 -0.02289,0.233847 -0.06194,0.351015 -0.01915,0.05744 0.0091,0.08503 -0.02065,0.144535 -0.02753,0.05506 0.02753,0.151419 0,0.20648 -0.04404,0.08808 -0.02365,0.235768 0,0.330367 0.01702,0.06806 -0.01058,0.123384 0.02065,0.185831 0.02364,0.04728 0,0.536894 0,0.619439 0,0.07245 -0.02179,0.182393 0,0.247775 0.01627,0.04882 0.02065,0.07232 0.02065,0.123888 0,0.05443 -0.02316,0.180814 0,0.227127 0.0044,0.0087 0.01629,0.01194 0.02065,0.02065 0.0069,0.01373 4.87e-4,0.453279 0,0.454255 -0.0044,0.0087 -0.01629,0.01194 -0.02065,0.02065 -0.02478,0.04955 0.02478,0.136276 0,0.185831 -0.02352,0.04704 -0.02065,0.08733 -0.02065,0.144536 0.01378,0.05505 0.02139,0.112026 0.04133,0.165159 0.0024,0.0064 0.01578,-0.0049 0.02065,0 0.0038,0.0038 0.01684,0.05814 0.02065,0.06194 0.0049,0.0049 0.01578,-0.0049 0.02065,0 0.009,0.009 0.05198,0.103953 0.06194,0.123888 0.0062,0.01231 -0.0097,0.03156 0,0.04129 0.0049,0.0049 0.01578,-0.0049 0.02065,0 0.0097,0.0097 -0.0062,0.02898 0,0.0413 0.0044,0.0087 0.01629,0.01194 0.02065,0.02065 0.0062,0.01231 -0.0044,0.02824 0,0.0413 0.0049,0.0146 0.01691,0.02637 0.02065,0.0413 0.0082,0.03287 -0.01529,0.09331 0,0.123888 0.0044,0.0087 0.01757,0.01141 0.02065,0.02065 0.01882,0.05646 -0.0093,0.08467 0.02065,0.144535 0.01659,0.03318 -0.01188,0.08826 0,0.123888 0.01395,0.04186 0.03063,0.08123 0.0413,0.123887 0.01583,0.06334 -0.0092,0.0849 0.02065,0.144536 0.01377,0.02753 -0.01376,0.07571 0,0.10324 0.0044,0.0087 0.01757,0.01141 0.02065,0.02065 0.01239,0.03717 -0.01239,0.08672 0,0.123887 0.01712,0.05136 0.0191,0.10015 0.0413,0.144536 0.0099,0.01982 -0.0066,0.06276 0,0.08259 0.0031,0.0092 0.01629,0.01194 0.02065,0.02065 0.0082,0.01631 -0.0058,0.04453 0,0.06194 0.01712,0.05136 0.0191,0.100149 0.0413,0.144535 0.01083,0.02166 -0.01648,0.08676 0,0.10324 0.0049,0.0049 0.01578,-0.0049 0.02065,0 0.01105,0.01105 0.01029,0.16512 0.02065,0.185831 0.0044,0.0087 0.01629,0.01194 0.02065,0.02065 0.01094,0.02188 -0.0078,0.0592 0,0.08259 0.0275,0.0825 0.03469,0.166013 0.06194,0.247775 0.0098,0.0293 -0.01369,0.07585 0,0.10324 0.03092,0.06185 0.0049,0.112966 0.02065,0.144536 0.02779,0.05559 0.0072,0.09701 0.02065,0.123887 0.03212,0.06424 4.25e-4,0.104514 0.02065,0.165184 0.0031,0.0092 0.01629,0.01194 0.02065,0.02065 0.01094,0.02188 -0.0078,0.0592 0,0.08259 0.01712,0.05136 0.0191,0.100149 0.0413,0.144535 0.0198,0.03961 0,0.138746 0,0.185832 0,0.09399 -0.0097,0.0012 0.02065,0.06194 0.02753,0.05506 -0.02753,0.151419 0,0.20648 0.02339,0.04677 0.01791,0.09776 0.0413,0.144535 0.01376,0.02753 -0.01377,0.07571 0,0.10324 0.02508,0.05015 0.0089,0.07978 0.02065,0.10324 0.05141,0.102814 0.03016,0.246141 0.08259,0.351015 0.01365,0.0273 -0.0077,0.06726 0.02065,0.123888 0.01331,0.02663 -0.0074,0.06786 0.02065,0.123887 0.01603,0.03207 -0.01131,0.08995 0,0.123888 0.0031,0.0092 0.01629,0.01194 0.02065,0.02065 0.01652,0.03304 -0.01652,0.09085 0,0.123888 0.0031,0.0062 0.01578,-0.0049 0.02065,0 0.01538,0.01538 -0.0066,0.103994 0,0.123887 0.0031,0.0092 0.01629,0.01194 0.02065,0.02065 0.01344,0.02688 -0.0071,0.0683 0.02065,0.123888 0.01377,0.02753 -0.01376,0.07571 0,0.103239 0.0044,0.0087 0.01629,0.01194 0.02065,0.02065 0.01083,0.02166 -0.01648,0.08676 0,0.10324 0.01923,0.01923 0.02065,-0.0016 0.02065,0.0413"
         id="path11" /><path
         style="fill:none;stroke:#000000;stroke-width:0.234;stroke-linecap:round;stroke-dasharray:none"
         d="m -73.204597,39.006244 c 0.02236,0.0038 0.03776,0.01956 0.05678,0.03097 0.0114,0.0068 0.03174,0.01625 0.0413,0.02581 0.01068,0.01068 -0.01632,-4.23e-4 0.0052,0.01033 0.01426,0.0071 0.02152,0.01592 0.03097,0.02065 0.0025,0.0013 0.01064,0.01001 0.01549,0.0052 0.0012,-0.0012 -0.0012,-0.0039 0,-0.0052 0.0012,-0.0012 0.0039,0.0012 0.0052,0 0.0012,-0.0012 -7.68e-4,-0.0036 0,-0.0052 0.01118,-0.02235 0.02336,-0.04619 0.01032,-0.07227 -0.0034,-0.0069 0.0034,-0.01893 0,-0.02581 -0.0067,-0.0135 -0.01336,-0.02671 -0.02065,-0.0413 -0.0034,-0.0068 0.0048,-0.01051 -0.0052,-0.01549 -0.0096,-0.0048 -0.02862,0.0066 -0.03613,0.01032 -0.01095,0.0055 -0.02083,-0.005 -0.03097,0.0052"
         id="path12" /><path
         style="fill:none;stroke:#000000;stroke-width:0.233;stroke-linecap:round;stroke-dasharray:none"
         d="m -75.625568,39.104322 c -0.003,0.09198 -0.04646,0.181493 -0.04646,0.273586 0,0.0333 0.0052,0.07225 -0.0052,0.103239 -0.0042,0.01246 0.0032,0.02851 0,0.0413 -0.0077,0.03089 -0.01818,0.0624 -0.02581,0.09292 -0.0028,0.01128 -0.0014,0.0195 -0.0052,0.03097 -0.0032,0.0095 -0.0043,0.0586 0,0.06711 0.0064,0.01276 0.0052,-0.0018 0.0052,0.01032 0,0.0165 -0.0072,0.048 0.01032,0.05678 0.01535,0.0077 0.116612,-0.01126 0.123888,-0.02581 0.01432,-0.02865 -0.0037,-0.0629 -0.01032,-0.09292 -0.0147,-0.06614 -0.05536,-0.134666 -0.09292,-0.190993 -0.0091,-0.01358 -0.02598,-0.02345 -0.03613,-0.03613 -0.0024,-0.003 -0.0024,-0.0076 -0.0052,-0.01032 -0.0038,-0.0038 -0.01164,-0.0013 -0.01549,-0.0052 -0.0012,-0.0012 0.0012,-0.0039 0,-0.0052 -0.0012,-0.0012 -0.0039,0.0012 -0.0052,0 -0.0021,-0.0021 -0.0028,-0.0066 -0.01032,-0.01032 -0.0031,-0.0016 -0.0131,0.0024 -0.01549,0 -0.0048,-0.0048 3.97e-4,-0.0052 -0.01032,-0.0052"
         id="path13" /></g></g></svg>
